<svg id="Layer_1" data-name="Layer 1" xmlns="http://www.w3.org/2000/svg" viewBox="0 0 50 50">
  <defs>
    <style>
      .cls-1 {
        fill: #4d4d4d;
      }
    </style>
  </defs>
  <title>hnsArtboard 1 copy@1x</title>
  <path class="cls-1" d="M1.48,50a24,24,0,0,1,47,0Z"/>
  <g>
    <path class="cls-1" d="M10.81,14.73a1.26,1.26,0,0,0,1.49-.88c.35-1.47-1.47-2-1-4a2.16,2.16,0,0,1,2.08-1.48s0,0,0,0,0,0,0,0a1.74,1.74,0,0,0-1.52,1.41c-.35,1.47,1.27,2.25,1,3.74S11.37,15,11.13,15a.84.84,0,0,1-.34-.15.06.06,0,0,1,0-.06A0,0,0,0,1,10.81,14.73ZM33.94,30.87a5,5,0,0,0,.74-.55v-.06a7,7,0,0,0-.31-1.48,9.51,9.51,0,0,0-1.17-1.2h0s0,0,0,0v0a.67.67,0,0,1,.06.17c.08.18.17.46.28.81a10.09,10.09,0,0,1,.38,2.25s0,0,.09,0Z"/>
    <path class="cls-1" d="M39.22,25.24a.13.13,0,0,1,0-.06.83.83,0,0,0-.08-.18,5.29,5.29,0,0,1-.29-.65,19.22,19.22,0,0,1-.69-1.88c-.3-1-.53-2.27-.66-2.81a5,5,0,0,0,1-.77v0s0,0,0,0l-.11-.21a20.34,20.34,0,0,1-.76-2.23l0-.2s0,0-.05-.05l-.21-.05a72.86,72.86,0,0,1-7.09-2.16,51.53,51.53,0,0,1-7.13-3.19,1.89,1.89,0,0,0-.13-.35,2.4,2.4,0,0,1-.85-.46,6.55,6.55,0,0,1,.55,4.69,6.35,6.35,0,0,1-.76,1.85,4.94,4.94,0,0,1-2.08,2,4.07,4.07,0,0,1-1.4.43,27.38,27.38,0,0,0-.73-2.66,6.12,6.12,0,0,0,.79,0,4,4,0,0,0,2.09-.61,4,4,0,0,0,1.32-1.37,4.21,4.21,0,0,0,.46-1.1,4.28,4.28,0,0,0-.5-3.08,5.93,5.93,0,0,0-2.2-2.22,4.8,4.8,0,0,0-1.42-.57,5.27,5.27,0,0,0-2.92.06,3.53,3.53,0,0,0-2.25,1.94,5.23,5.23,0,0,0-.32.94,2.88,2.88,0,0,0-.07,1.19,1.82,1.82,0,0,0,.47.95,2,2,0,0,0,.53.31v.06a1.38,1.38,0,0,0,0,.32,3.9,3.9,0,0,1-.09.65c0,.18-.12.38-.16.53a1.14,1.14,0,0,1-.08.2l-.24,0a1.76,1.76,0,0,0-.6,0,11.22,11.22,0,0,1,1.45,1.88,7.07,7.07,0,0,1,.86,1.86,0,0,0,0,0,0,0,5.16,5.16,0,0,1,.78.19,3.67,3.67,0,0,1,.72.33,0,0,0,0,0,0,0,1.92,1.92,0,0,0,.09-.65.8.8,0,0,0-.5-.72s0,0,0,0l-.11.32a0,0,0,0,0,0,0,.64.64,0,0,1,.31.17.37.37,0,0,1,.12.41,3.36,3.36,0,0,0-.56-.29,2.77,2.77,0,0,0-.66-.19,9.49,9.49,0,0,0-.51-1.56,12.76,12.76,0,0,0-.77-1.56s.06-.11.12-.25l0-.06a.69.69,0,0,0,.49-.46.73.73,0,0,0-.23-.63,1.09,1.09,0,0,0,0-.18c0-.16,0-.29,0-.35a1,1,0,0,0,.41-.09,2,2,0,0,0,.61-.43c.31-.34.59-.71,1-1.2a2,2,0,0,1,.93-.79,2,2,0,0,1,1.09-.06,2.14,2.14,0,0,1,.85.43,1.51,1.51,0,0,1,.58,1.7,1.68,1.68,0,0,1-.17.44,1,1,0,0,0-.1.17,1.82,1.82,0,0,0-1.4-1.49,1.92,1.92,0,0,0-2.43,1.51,2.78,2.78,0,0,0,.57,2.24l.06,0h.13a2.6,2.6,0,0,0,.5-.1l0,0v0a2.75,2.75,0,0,1-.49-1.9,1.22,1.22,0,1,1,2.38.55,2.67,2.67,0,0,1-2.32,1.69,4.6,4.6,0,0,1-2-.28s0,0,0,0a0,0,0,0,0,0,0,3.33,3.33,0,0,0,2.18.59.7.7,0,0,1,.25,0A5.44,5.44,0,0,0,16.6,17a4,4,0,0,0,.13,1.44h.06l.33-.3v-.06a5.3,5.3,0,0,1,.08-1.38c0,.1.07.24.13.38.14.48.31,1.09.5,1.77-.09,0-.19,0-.28,0,.07.24.11.47.17.74a2.7,2.7,0,0,1,.28,0c.07.33.14.7.21,1.1a39.07,39.07,0,0,1,.44,4.37v.42s0,.06.05.07h0l.36,0a2.64,2.64,0,0,1,.88,0,3,3,0,0,1,1,.5,2.19,2.19,0,0,1,.74,1.17,3.4,3.4,0,0,1,0,1.58,2.9,2.9,0,0,1-.14.48,0,0,0,0,0,0,0h0a3.44,3.44,0,0,0,.84-.3s0,0,0-.06v0a4,4,0,0,0,0-2,2.84,2.84,0,0,0-1-1.62,3.35,3.35,0,0,0-1.33-.67,5.52,5.52,0,0,0-.71-.11A33.65,33.65,0,0,0,19,20.48c0-.33-.12-.66-.17-1A4.63,4.63,0,0,0,20.42,19a5.45,5.45,0,0,0,2.35-2.33,9.22,9.22,0,0,0,.78-2,7.2,7.2,0,0,0,.08-2.85,51,51,0,0,0,6.6,2.88c3.14,1.11,5.76,1.84,6.94,2.12a17.78,17.78,0,0,0,.6,1.84,4.29,4.29,0,0,1-.75.48l-.19.12s0,0,0,0v0l0,.23s.33,1.8.74,3.14a23.13,23.13,0,0,0,1,2.64c-.15.12-.32.3-.53.5a4.6,4.6,0,0,0-1.14,2.06,13.72,13.72,0,0,0-.3,2.05,11.86,11.86,0,0,0-1-1.55,13.14,13.14,0,0,0-7.22-4.49,10.39,10.39,0,0,0-2.77-.29,4.84,4.84,0,0,0-1.87.48,2.09,2.09,0,0,0-.7.65,4,4,0,0,0-.17.44,3.61,3.61,0,0,0,0,1.27A10.93,10.93,0,0,1,23,27.74c0,1,0,1.84,0,2.1a0,0,0,0,0,0,0h0a4.34,4.34,0,0,0,.74-.3.11.11,0,0,0,.05,0c0-.4,0-1.07,0-1.78a9.9,9.9,0,0,0-.17-1.41,2.62,2.62,0,0,1,0-1,.82.82,0,0,1,.1-.26,1.18,1.18,0,0,1,.36-.33,4,4,0,0,1,.9-.29,8,8,0,0,1,3.17.19,12.27,12.27,0,0,1,6.79,4.2,8.81,8.81,0,0,1,1.76,3.51c.1.38.12.57.15.68l0,0h0a2.5,2.5,0,0,0,.66-.51l0-.06c0-.1,0-.13,0-.26a7.89,7.89,0,0,1-.09-.79,11,11,0,0,1,.25-3.41,3.92,3.92,0,0,1,.9-1.63,4,4,0,0,1,.7-.62l.3-.19-.38-.41ZM14.2,13.9a.48.48,0,0,1-.58.27.36.36,0,0,1,.07-.17.25.25,0,0,0,.33-.18c.05-.21-.14-.35-.22-.4s0-.13,0-.19S14.33,13.48,14.2,13.9Zm5-.09a.27.27,0,0,1,.12-.1,3.12,3.12,0,0,0,.57-.66,2.52,2.52,0,0,0,.25-1.82,2.46,2.46,0,0,0-.8-1.18,2.76,2.76,0,0,0-1.11-.55,2.57,2.57,0,0,0-1.48.08,2.79,2.79,0,0,0-1.21,1.05,10,10,0,0,1-.88,1.12,1.08,1.08,0,0,1-.39.29.66.66,0,0,1-.72-.14,1,1,0,0,1-.28-.58,2.46,2.46,0,0,1,.07-.94,5.1,5.1,0,0,1,.29-.82A2.83,2.83,0,0,1,15.53,8a5,5,0,0,1,3.81.44,5.06,5.06,0,0,1,1.95,2A3.64,3.64,0,0,1,21.7,13a2.55,2.55,0,0,1-.37.89,3.39,3.39,0,0,1-1.11,1.17,3.88,3.88,0,0,1-1.75.53,3.51,3.51,0,0,1-.94-.07A2.65,2.65,0,0,0,19.22,13.81Z"/>
  </g>
</svg>
