<svg class="back" xmlns="http://www.w3.org/2000/svg" width="253.3" height="522.92" viewBox="0 0 253.3 522.92">
    <g class="back">
        <g id="Back_Muscle_Groups" data-muscles="Back Muscle Black">
          <g id="Tricep">
            <path id="Tricep_Right" data-muscles="Tricep Right" class="cls-1" d="M211,164.49a120.36,120.36,0,0,0-2.64-21.86c-.89-.82-1.4-1.67-2.24-2.52,0,.12,0,.23,0,.36a160,160,0,0,0-19.59-13.26c.48,6.93-.78,13.14-2.29,19.3a113.13,113.13,0,0,1-4.68,15,1.38,1.38,0,0,1-.05.89,56.1,56.1,0,0,1-2.18,5.61,17.76,17.76,0,0,0-1,2.67,58.34,58.34,0,0,0,4.49,12,95.39,95.39,0,0,1,4.22,9.68,14.89,14.89,0,0,1,3.74,1.76v0c.88.6,1.6,1.07,2.29,1.57a49.39,49.39,0,0,0,10.62,6c3.54,1.4,4.81.39,4.08-3.4-.51-2.58-1.39-5.09-2.09-7.63a45.42,45.42,0,0,1-1.31-5.1,7.42,7.42,0,0,1,.21-3.51c.59-1.69,2.21-1.92,3.36-.54a9.76,9.76,0,0,1,1.63,2.9c1,2.77,1.87,5.61,2.83,8.4.65,1.9,1.36,3.75,3.21,4.9a2.09,2.09,0,0,1,.28.22c1.09-.22,2-.29,3.13-.57A122,122,0,0,1,211,164.49Z"/>
            <path id="Tricep_Left" data-muscles="Tricep Left" class="cls-1" d="M35.36,164.17A116.17,116.17,0,0,1,38,142.8c.89-.82,1.58-1.84,2.42-2.69,0,.12,0,.23,0,.36A160.78,160.78,0,0,1,60,127.21c-.47,6.93.78,13.14,2.29,19.3a113.13,113.13,0,0,0,4.68,15,1.38,1.38,0,0,0,.05.89A56.1,56.1,0,0,0,69.22,168a17.76,17.76,0,0,1,1,2.67,58.34,58.34,0,0,1-4.49,12,95.39,95.39,0,0,0-4.22,9.68,14.89,14.89,0,0,0-3.74,1.76v0c-.89.6-1.61,1.07-2.3,1.57a49.15,49.15,0,0,1-10.62,6c-3.54,1.4-4.81.39-4.07-3.4.5-2.58,1.39-5.09,2.08-7.63a45.42,45.42,0,0,0,1.31-5.1A7.42,7.42,0,0,0,44,182c-.59-1.69-2.21-1.92-3.36-.54a10,10,0,0,0-1.63,2.9c-1,2.77-1.87,5.61-2.83,8.4-.65,1.9-1.36,3.75-3.21,4.9a2.09,2.09,0,0,0-.28.22c-1.09-.22-2.2-.33-3.29-.61A124,124,0,0,0,35.36,164.17Z"/>
          </g>
          <g id="Teres_Major" data-muscles="Teres Major">
            <path id="Teres_Major_Right" data-muscles="Teres Major Right" class="cls-1" d="M183.94,141.77a51,51,0,0,0,.79-10.63c0-1.59-.27-3.18-.37-4.77v-.27h0a7.27,7.27,0,0,1-1.86.41,3.19,3.19,0,0,1-1.3.82c-9.44,4.29-18.08,9.9-26.57,15.78a5.43,5.43,0,0,0-.73.62,3.28,3.28,0,0,0-.32.66,5.55,5.55,0,0,0,1.48.86,41.86,41.86,0,0,0,5.42,1c5.85.46,11.67.47,17.28-1.64.53-.2,1-.43,1.56-.64l1.56-.6Z"/>
            <path id="Teres_Major_Left" data-muscles="Teres Major Left" class="cls-1" d="M65.54,143.32l1.56.6c.52.21,1,.44,1.56.64,5.61,2.11,11.43,2.1,17.28,1.64a41.86,41.86,0,0,0,5.42-1,5.4,5.4,0,0,0,1.48-.86c-.18-.38-.21-.56-.32-.66a5.43,5.43,0,0,0-.73-.62c-8.48-5.88-17.13-11.49-26.57-15.78a3.19,3.19,0,0,1-1.3-.82,7.37,7.37,0,0,1-1.86-.41h0a2.43,2.43,0,0,1,0,.27c-.1,1.59-.32,3.18-.37,4.77a50.29,50.29,0,0,0,.8,10.63Z"/>
          </g>
          <g id="Trapezius">
            <path id="Trapezius_Right" data-muscles="Trapezius Right" class="cls-1" d="M148,81.15a4.51,4.51,0,0,1-1.45-1A1.82,1.82,0,0,1,146,80l-.22-.12a6.46,6.46,0,0,1-.9-.32c-.08,0-.15-.09-.23-.13a1.53,1.53,0,0,1-1.22-.43,2.69,2.69,0,0,1-.22-.28l0,.26a19.12,19.12,0,0,1-5.24-8.6,1.13,1.13,0,0,1,0-.18,13.39,13.39,0,0,1-1.27-2.81,6.61,6.61,0,0,1-.48-1c-.5-1.35-.94-2.73-1.44-4.08a4.77,4.77,0,0,0-7.19-2.38c-1.09.67-1,1.61-1,2.72.46,6,2.34,11.57,4.53,17.08,1,2.46,1.94,4.91,2.83,7.4,1.27,3.55.77,6.66-2.05,9.43-4.57,4.5-6.34,10.27-6.88,16.47-.29,3.34-.46,6.7-.43,10,.08,8.71.21,17.42.47,26.13.16,5.59.56,11.16.9,16.74a26.35,26.35,0,0,0,.62,3.22,11,11,0,0,0,1.67-1c7-6.83,13.7-13.9,19.05-22.14,3.95-6.1,7-12.59,8-19.87.49-3.64.53-7.34,1.15-10.95,1.84-10.56,8-17.7,17.79-21.86a4.66,4.66,0,0,1,1.47-.46,9.33,9.33,0,0,1,1.68-.93,12.74,12.74,0,0,0,1.43-.81c-.92-.3-3.08-1.15-4-1.51a112.16,112.16,0,0,0-16.46-5Z"/>
            <path id="Trapezius_Left" data-muscles="Trapezius Left" class="cls-1" d="M98.52,81.06c.1,0,.34-.12.36-.13a2.81,2.81,0,0,0,1.15-.66c.19,0,.37-.22.55-.3l.22-.12a6.46,6.46,0,0,0,.9-.32c.08,0,.15-.09.23-.13a1.55,1.55,0,0,0,1.22-.43,2.69,2.69,0,0,0,.22-.28l0,.26a19.14,19.14,0,0,0,5.25-8.6l0-.18a13.92,13.92,0,0,0,1.27-2.81,7.81,7.81,0,0,0,.48-1c.5-1.35.94-2.73,1.44-4.08a4.77,4.77,0,0,1,7.19-2.38c1.08.67,1,1.61.94,2.72-.45,6-2.34,11.57-4.53,17.08-1,2.46-1.93,4.91-2.82,7.4-1.28,3.55-.77,6.66,2,9.43,4.57,4.5,6.34,10.27,6.88,16.47.29,3.34.45,6.7.42,10-.07,8.71-.2,17.42-.46,26.13-.16,5.59-.56,11.16-.9,16.74a26.35,26.35,0,0,1-.62,3.22,10.49,10.49,0,0,1-1.67-1c-7-6.83-13.7-13.9-19-22.14-4-6.1-7-12.59-8-19.87-.49-3.64-.53-7.34-1.16-10.95-1.83-10.56-8-17.7-17.79-21.86a4.62,4.62,0,0,0-1.46-.46,9.69,9.69,0,0,0-1.68-.93,14.49,14.49,0,0,1-1.61-.84c.92-.3,1.87-.65,2.76-1a132.59,132.59,0,0,1,17.91-5.79,81,81,0,0,0,9.6-3C98.11,81.21,98.29,81.16,98.52,81.06Z"/>
          </g>
          <g id="Deltoid">
            <path id="Deltoid_Right" data-muscles="Deltoid Right" class="cls-1" d="M202.66,112.74c-.92-10.18-8.3-18.06-18.38-20.17-.89-.19-1.95-.4-2.83-.63-1.43.66-2.48,1.18-3.93,1.78l.15.09c-.62.32-1.16.62-1.71.87a38.11,38.11,0,0,0-10.07,6.43,18,18,0,0,0-1.84,1.87c-3.57,4.34-3.21,8.94,1,12.73a31.57,31.57,0,0,0,10.36,5.89,47.77,47.77,0,0,0,5.48,1.74,2.44,2.44,0,0,1,.63.24,27.07,27.07,0,0,1,5,1.35,1.57,1.57,0,0,1,.85.71c.34.14.67.28,1,.43a66.16,66.16,0,0,1,12.73,8c.95.74,1.89,1.5,2.85,2.23H204a12.82,12.82,0,0,1,3,1.09A127.37,127.37,0,0,1,202.66,112.74Z"/>
            <path id="Deltoid_Left" data-muscles="Deltoid Left" class="cls-1" d="M43.57,112.76a22.35,22.35,0,0,1,18.19-20.1c.89-.19,2.21-.58,3.09-.81,1.43.66,2.8,1.27,4.25,1.87l-.16.09c.63.32,1.16.62,1.72.87a38.44,38.44,0,0,1,10.07,6.43A19,19,0,0,1,82.56,103c3.58,4.34,3.21,8.94-1,12.73a31.72,31.72,0,0,1-10.37,5.89,47.77,47.77,0,0,1-5.48,1.74,2.44,2.44,0,0,0-.63.24,27.07,27.07,0,0,0-5,1.35,1.6,1.6,0,0,0-.85.71l-1,.43a66.47,66.47,0,0,0-12.73,8c-.95.74-1.89,1.5-2.84,2.23h-.09a14.4,14.4,0,0,0-3.18,1C41.82,129.3,42.82,121.09,43.57,112.76Z"/>
          </g>
          <g id="Sternocleidomastoid">
            <path id="Sternocleidomastoid_Right" data-muscles="Sternocleidomastoid Right" class="cls-1" d="M146,56.05s0-.14-.05-.14a2.34,2.34,0,0,1,0-.26,1.13,1.13,0,0,0-.11-.22l-.09.13-.36.44a10.63,10.63,0,0,1-.72,1.48,2.57,2.57,0,0,1,0,.48c-.45,5.77-.91,11.57-1.39,17.7a15.39,15.39,0,0,1-.12,2.22c-.09,1.61-.13,1.92,1.63,2.16a9.37,9.37,0,0,0,1.6.09,4.31,4.31,0,0,1-1.23-3.42c.14-4.32.09-9.16.21-13.48.06-2.13.35-4.07.55-6.32Z"/>
            <path id="Sternocleidomastoid_Left" data-muscles="Sternocleidomastoid Left" class="cls-1" d="M101.65,80a10.83,10.83,0,0,1-1.73.13c1.1-.91,1.29-2.14,1.31-3.81,0-4.33-.17-8.63-.29-13-.06-2.14-.15-4.26-.34-6.51h-.18v0a2.6,2.6,0,0,1,0-1h.11a2.34,2.34,0,0,1,0-.26,1.12,1.12,0,0,1,.1-.22l.09.13.37.44a10.57,10.57,0,0,0,.71,1.48,3.85,3.85,0,0,0,0,.48c.45,5.77.9,11.57,1.39,17.7a14.17,14.17,0,0,0,0,2.26C103.25,79.52,103.42,79.8,101.65,80Z"/>
          </g>
          <g id="Latissimus_Dorsi" data-muscles="Latissimus Dorsi">
            <path id="Latissimus_Dorsi_Right" data-muscles="Latissimus Dorsi Right" class="cls-1" d="M175.23,168.52a98.08,98.08,0,0,1,3.33-9.49,1,1,0,0,1,.14-.3c1.19-3.33,2.42-6.66,3.45-10,.48-1.56.88-3.14,1.23-4.72l-1.27.71a14,14,0,0,1-1.92,1.2,4,4,0,0,1-1.7,1.09,37.91,37.91,0,0,1-11.92,2.52,40.91,40.91,0,0,1-12.37-1.19c-2.9-.78-5-.11-6.8,2.49-4.79,7.07-11,12.86-17.19,18.67a6.16,6.16,0,0,0-2.1,5.94A59.4,59.4,0,0,0,132,188.73a116.14,116.14,0,0,0,12.89,24,35.84,35.84,0,0,0,3.21,3.55,1.52,1.52,0,0,0,2.5,0,45,45,0,0,0,3.41-4.61c1.72-2.69,3.28-5.49,5-8.21a57.84,57.84,0,0,1,8.45-10.11v0a32.68,32.68,0,0,0,2.11-2.88c.09-.68.18-1.36.28-2a101.34,101.34,0,0,1,4.86-18.77A8.43,8.43,0,0,1,175.23,168.52Z"/>
            <path id="Latissimus_Dorsi_Left" data-muscles="Latissimus Dorsi Left" class="cls-1" d="M71.16,168.52A98,98,0,0,0,67.84,159a1.4,1.4,0,0,0-.15-.3c-1.19-3.33-2.41-6.66-3.45-10-.47-1.56-.88-3.14-1.23-4.72l1.27.71a13.56,13.56,0,0,0,1.93,1.2A3.88,3.88,0,0,0,67.9,147a37.91,37.91,0,0,0,11.92,2.52,40.94,40.94,0,0,0,12.38-1.19c2.89-.78,5-.11,6.79,2.49,4.79,7.07,11,12.86,17.19,18.67a6.16,6.16,0,0,1,2.1,5.94,59.4,59.4,0,0,1-3.84,13.34,116.14,116.14,0,0,1-12.89,24,34.64,34.64,0,0,1-3.21,3.55,1.52,1.52,0,0,1-2.5,0,46.48,46.48,0,0,1-3.41-4.61c-1.72-2.69-3.28-5.49-5-8.21A58.23,58.23,0,0,0,79,193.36v0a34.84,34.84,0,0,1-2.11-2.88c-.09-.68-.17-1.36-.27-2a102.16,102.16,0,0,0-4.87-18.77A8.43,8.43,0,0,0,71.16,168.52Z"/>
          </g>
          <g id="Extensor_Carpi" data-muscles="Extensor Carpi">
            <path id="Extensor_Carpi_Right" data-muscles="Extensor Carpi Right" class="cls-1" d="M224.5,248.12l-.15,0c-1.09-3.31-2.16-6.64-3.28-9.95-2.86-8.4-5.67-16.81-8.64-25.18a41.5,41.5,0,0,0-3.23-6.68c-1.6-2.83-3.48-3-5.74-.76-3.53,3.52-4.27,7.95-3.76,12.64.57,5.32,2.68,10.18,4.94,15,1.47,3.1,3.22,6.08,4.56,9.24a34,34,0,0,1,2.49,8c.66,4.41.87,8.89,1.16,13.35.09,1.25-.18,2.52-.08,3.84,1.62-3.17,1.24-6.91,2.83-10.13,2,3.9,1,8.06,1.75,12.16.28-1.34.62-2.67.84-4,.36-2.21.62-4.43,1-6.64a11.76,11.76,0,0,1,.83-2.07c2.48,4.25,1,8.62,2.48,12.55.19-2.06.41-4.11.57-6.16s-.31-4.13.81-6.18a2.43,2.43,0,0,1,1.52,2.3c.36,2.68.63,5.38.93,8.08a6.27,6.27,0,0,0,.22,1.41c1-3.4.78-6.91.81-10.95l.35.28a7.51,7.51,0,0,1,.47-2.38,5,5,0,0,1-.57-1.33c-.08-.29-.14-.58-.22-.87a7.8,7.8,0,0,1-2.1-2.69A15.49,15.49,0,0,1,224.5,248.12Z"/>
            <path id="Extensor_Carpi_Left" data-muscles="Extensor Carpi Left" class="cls-1" d="M21.89,248.12l.15,0c1.09-3.31,2.16-6.64,3.29-9.95C28.18,229.81,31,221.4,34,213a42.36,42.36,0,0,1,3.23-6.68c1.6-2.83,3.48-3,5.75-.76,3.52,3.52,4.26,7.95,3.75,12.64-.57,5.32-2.68,10.18-4.94,15-1.47,3.1-3.22,6.08-4.56,9.24a34.42,34.42,0,0,0-2.49,8c-.66,4.41-.86,8.89-1.16,13.35-.09,1.25.18,2.52.08,3.84-1.61-3.17-1.24-6.91-2.83-10.13-2,3.9-1,8.06-1.75,12.16-.28-1.34-.61-2.67-.83-4-.37-2.21-.63-4.43-1-6.64a12.88,12.88,0,0,0-.84-2.07c-2.48,4.25-1,8.62-2.48,12.55-.19-2.06-.41-4.11-.56-6.16s.3-4.13-.82-6.18A2.46,2.46,0,0,0,21,259.4c-.36,2.68-.63,5.38-.92,8.08a6.91,6.91,0,0,1-.23,1.41c-1-3.4-.77-6.91-.81-10.95l-.35.28a7.51,7.51,0,0,0-.47-2.38,5,5,0,0,0,.57-1.33c.08-.29.15-.58.22-.87a7.8,7.8,0,0,0,2.1-2.69A15.49,15.49,0,0,0,21.89,248.12Z"/>
          </g>
          <g id="Brachioradialis">
            <path id="Brachioradialis_Left" data-muscles="Brachioradialis Left" class="cls-1" d="M21.72,248.12a70.9,70.9,0,0,1,3.65-15.68c2.42-7.2,4.87-14.39,7.24-21.6a31.65,31.65,0,0,0,1.09-4.91,8.16,8.16,0,0,0-1-5.78c-.5-.81-.65-1.34-.46-1.82-.79-1.15-1.48-2.28-2.26-3.45a190.4,190.4,0,0,0-8.8,44.73c-.25,3.55-1.13,7-1.55,10.55A8.16,8.16,0,0,0,21.72,248.12Z"/>
            <path id="Brachioradialis_Right" data-muscles="Brachioradialis Right" class="cls-1" d="M224.88,248.12a70.88,70.88,0,0,0-3.64-15.68c-2.43-7.2-4.87-14.39-7.24-21.6a30.54,30.54,0,0,1-1.09-4.91,8.1,8.1,0,0,1,1-5.78,3.11,3.11,0,0,0,.45-2.35c1.19-.32,1.85.2,3.05-.35,6.69,20.92,6.66,29.12,8.21,42.87.4,3.53.73,6.24,1.15,9.77A7.06,7.06,0,0,1,224.88,248.12Z"/>
          </g>
          <g id="Gluteus_Maximus" data-muscles="Gluteus Maximus">
            <path id="Gluteus_Maximus_Right" data-muscles="Gluteus Maximus Right" class="cls-1" d="M125.62,278.42c7.75,10.15,18.31,8.12,27.12,6.05,14.31-3.37,17.31-12,17.13-24.77-.21-14.44.51-24.64-13.69-30.72-10-4.28-35.06,1.84-32.7,17.4C124.63,253.92,121.31,274,125.62,278.42Z"/>
            <path id="Gluteus_Maximus_Left" data-muscles="Gluteus Maximus Left" class="cls-1" d="M83.59,233.89c-8.83,9.77-9.47,35.18-1.49,43.91,10.21,11.18,38.63,12.05,40.52-2.54,1.25-9.63.33-24,.86-33.88C119.81,229,95,221.26,83.59,233.89Z"/>
          </g>
          <g id="Hamstrings">
            <path id="Hamstring_Left" data-muscles="Hamstring Left" class="cls-1" d="M56.09,361.19c-.74,4.54.44,6.83.88,11.39.14-.23.34-.41.51-.64a41.56,41.56,0,0,1,12.73-11.79,28.43,28.43,0,0,0,11.21-11.51c.45-.83,1-1.63,1.69-2.83.15.84.29,1.31.32,1.78.13,2.31.22,4.62.34,6.93A14.24,14.24,0,0,0,87,362.64a38.76,38.76,0,0,1,6.37,12.69A19.6,19.6,0,0,0,96.63,370c.06-.44.08-.89.18-1.32a143.48,143.48,0,0,1,6.64-20c3.44-8.87,7.07-17.68,9-27.06,1.52-7.54,2.74-15.12,2.14-22.84a27,27,0,0,0-1.29-6.06,5.92,5.92,0,0,0-6.13-4.4,49.85,49.85,0,0,1-16.5-2.61A4.76,4.76,0,0,0,85,287.13a39.77,39.77,0,0,0-4.57,6.69c-2.63,5.21-5,10.54-7.42,15.86-2.66,5.9-5.38,11.78-7.78,17.79A147.68,147.68,0,0,0,57,358.72Z"/>
            <path id="Hamstring_Right" data-muscles="Hamstring Right" class="cls-1" d="M190.3,361.19c.74,4.54-.44,6.83-.88,11.39-.14-.23-.34-.41-.51-.64a41.63,41.63,0,0,0-12.72-11.79A28.3,28.3,0,0,1,165,348.64c-.46-.83-1-1.63-1.7-2.83a16.43,16.43,0,0,0-.31,1.78c-.14,2.31-.23,4.62-.35,6.93a14.24,14.24,0,0,1-3.18,8.12,38.74,38.74,0,0,0-6.36,12.69,19.39,19.39,0,0,1-3.32-5.32c-.06-.44-.08-.89-.18-1.32a142.18,142.18,0,0,0-6.64-20c-3.44-8.87-7.07-17.68-9-27.06-1.52-7.54-2.74-15.12-2.14-22.84a26.43,26.43,0,0,1,1.3-6.06,5.9,5.9,0,0,1,6.12-4.4,49.81,49.81,0,0,0,16.5-2.61,4.76,4.76,0,0,1,5.66,1.42,39.18,39.18,0,0,1,4.57,6.69c2.63,5.21,5,10.54,7.42,15.86,2.66,5.9,5.39,11.78,7.78,17.79a147.08,147.08,0,0,1,8.19,31.25Z"/>
          </g>
          <g id="Gastrocnemius">
            <path id="Gastrocnemius_Right" data-muscles="Gastrocnemius Right" class="cls-1" d="M170,454a7.15,7.15,0,0,0,3.76-4.61c1.32-4.44,2.45-8.93,3.67-13.4a2.83,2.83,0,0,1,.93-1.54c.3.77.61,1.54.9,2.32,1.57,4.29,3.29,8.5,6.14,12.15,1.73,2.21,3.75,3.62,6.77,2.94,1.14-.62,2-1.15,3.14-1.83-.07-13-.13-26-.19-39,0-1.84.08-3.63,0-5.46-.22-3.26-.58-6.75-.92-10-.48-4.56-1.63-8.95-2.08-13.54a17,17,0,0,1-1.13-2.31l-.68-1c-.55-1.08-.94-1.92-1.39-2.72a5.66,5.66,0,0,0-4.66-2.95c-6.06-.61-9.74,2.11-11,8.13-.13.6-.33,1.19-.62,2.24-.59-.94-.9-1.54-1.31-2.07a44.27,44.27,0,0,0-3.8-4.57c-2.33-2.21-5.14-1.81-7.9-.92-2,.63-6.48,1.89-7.73,3.5-1.31,3.13-1.31,3.13-.47,9.33.08.73.16,1.63.21,2.37a92.79,92.79,0,0,0,2.21,14.63c1.28,5.51,3.16,10.7,4.7,16.16,3,10.61,6,21.31,9,31.92,0,0-.33.1-.33.12Z"/>
            <path id="Gastrocnemius_Left" data-muscles="Gastrocnemius Left" class="cls-1" d="M76.44,454a7.14,7.14,0,0,1-3.77-4.61C71.35,445,70.22,440.46,69,436a2.87,2.87,0,0,0-.92-1.54c-.3.77-.62,1.54-.9,2.32-1.58,4.29-3.3,8.5-6.15,12.15-1.73,2.21-3.75,3.62-6.77,2.94-1.14-.62-2-1.15-3.14-1.83.07-13,.13-26,.19-39,0-1.84-.07-3.63,0-5.46.21-3.26.57-6.75.91-10,.48-4.56,1.63-8.95,2.09-13.54a18.25,18.25,0,0,0,1.12-2.31l.68-1c.55-1.08.94-1.92,1.39-2.72a5.66,5.66,0,0,1,4.66-2.95q9.1-.92,11,8.13c.13.6.33,1.19.62,2.24.59-.94.9-1.54,1.31-2.07a43.12,43.12,0,0,1,3.81-4.57c2.32-2.21,5.13-1.81,7.89-.92,2,.63,4.31,3.08,5.67,5.16,1.32,3.12,2.47,3.4,2.53,7.67-.08.73-.16,1.63-.21,2.37a92.77,92.77,0,0,1-2.2,14.63c-1.28,5.51-3.17,10.7-4.71,16.16-3,10.61-6,21.31-9,31.92,0,0,.34.1.33.12Z"/>
          </g>
          <g id="Teres_Minor" data-muscles="Teres Minor">
            <path id="Teres_Minor_Right" data-muscles="Teres Minor Right" class="cls-1" d="M178.63,125.37A181.34,181.34,0,0,0,154,140.48l1-2.45a46.71,46.71,0,0,0,3.06-12c.49-3.78.81-7.59,1.23-11.38a7.15,7.15,0,0,1,.33-1.18l.48-.27c.1.26.19.52.3.77a12.87,12.87,0,0,0,6.4,6.2c3.4,1.73,7,3.14,10.46,4.68C177.62,125,178,125.12,178.63,125.37Z"/>
            <path id="Teres_Minor_Left" data-muscles="Teres Minor Left" class="cls-1" d="M68.33,125.42c7-3.07,14.56-4.81,18.58-12l.4.12c.19,1.38.47,2.75.56,4.13.51,7.7,1.53,15.28,4.71,22.5A209.08,209.08,0,0,0,68.33,125.42Z"/>
          </g>
          <g id="Lumbodersal_Fascia" data-muscles="Lumbodersal Fascia">
            <path id="Lumbodersal_Fascia_Left" data-muscles="Lumbodersal Fascia Left" class="cls-1" d="M121.21,174.15a13.36,13.36,0,0,1,.28,2.07c-.13,5.3-.3,10.6-.47,15.9-.14,4-.33,8-.46,11.95-.11,3.63-.13,7.26-.26,10.89-.12,3.46-.31,6.92-.49,10.38,0,.92-.13,1.83-.26,2.74-.1.74-.38,1.24-1.35,1a41.56,41.56,0,0,1-15.49-6.33,7.76,7.76,0,0,1-1.58-1.45,2.69,2.69,0,0,1-.07-3.66,110.7,110.7,0,0,0,12.77-20.88A91.05,91.05,0,0,0,121.21,174.15Z"/>
            <path id="Lumbodersal_Fascia_Right" data-muscles="Lumbodersal Fascia Right" class="cls-1" d="M125.83,174.26c.23,1.16.44,2.32.68,3.47a83.72,83.72,0,0,0,9.9,25.56c2.9,4.94,6.21,9.64,9.39,14.42,1,1.57.82,3-.8,4.36a28.39,28.39,0,0,1-9.21,5c-2.36.83-4.82,1.36-7.23,2.05-.87.26-1.16-.07-1.22-.9-.13-2-.38-4.05-.45-6.07-.21-6.38-.33-12.77-.52-19.15-.12-4-.33-8.05-.46-12.07-.18-5.06-.32-10.13-.47-15.19,0-.46,0-.93.07-1.4Z"/>
          </g>
        </g>
        <g id="Body_Back_Outline" data-muscles="Body Back Outline">
          <path d="M123.5,2a31.16,31.16,0,0,1,16.86,5.26c5.16,3.29,8,8.21,8.43,14.64.14,2.05.2,4.16.26,6.21,0,1,.06,2,.1,3.06,0,.55,0,1.1.08,1.65l0,.72.06,1.2,1.09.51.2.1a3.31,3.31,0,0,0,1.08.4c2.34.37,2.49.56,2.38,2.85a6,6,0,0,1-.21,1.54C152.49,43.9,151,48,149.4,52c-.78,2-1.76,2.83-3.41,2.93l-1.72.1-.15,1.72c-.06.7-.13,1.38-.2,2.06-.15,1.49-.31,3-.35,4.57-.06,2.08-.08,4.18-.1,6.21,0,2.21,0,4.5-.11,6.73a6.47,6.47,0,0,0,4.74,6.86l1.39.46c2.71.88,5.52,1.79,8.36,2.5a132.73,132.73,0,0,1,17.74,5.7,49,49,0,0,0,8.59,2.55A21,21,0,0,1,201.08,113a128.92,128.92,0,0,0,4.31,25.14,104.83,104.83,0,0,1,3.9,26,126.24,126.24,0,0,0,6.61,35.27A137.32,137.32,0,0,1,222,225.57c.37,2.94.68,6,1,8.87.21,2.16.44,4.39.69,6.58l.21,1.93a79.18,79.18,0,0,0,2,12.08,6,6,0,0,0,3,4c1,.54,1.93,1.09,2.89,1.65l2.09,1.2a4.14,4.14,0,0,1,2,2.32c.19.55.41,1.07.62,1.58s.3.75.44,1.13l1.59,4.24c1.15,3.1,2.34,6.31,3.57,9.45a16.93,16.93,0,0,0,1.26,2.48c.26.44.5.86.71,1.28a2.86,2.86,0,0,1,.33,1,2.59,2.59,0,0,1-1,.23l-.47,0A4.31,4.31,0,0,1,240,284.5c-1.17-1-2.26-2.19-3.42-3.42l-1.62-1.7-3.06-3.14-.36,4.37c0,.17,0,.35,0,.53-.05.43-.09.92-.11,1.42a33.75,33.75,0,0,1-1.86,10.87c-1.44,3.71-4.13,6.66-8.49,9.31a4.55,4.55,0,0,1-2.38.69,4.83,4.83,0,0,1-1.18-.15,5.27,5.27,0,0,0-1.3-.15,12.3,12.3,0,0,0-1.57.13l-.2,0c-.61.08-1.19.19-1.75.3a17.63,17.63,0,0,1-2.14.32l-.59,0a1.87,1.87,0,0,1-.72-.09,1.14,1.14,0,0,1-.09-.41l-.19-2.09-2.07.29c-.35.05-.68.11-1,.17a5.75,5.75,0,0,1-1,.14h-.09l-.25,0a9.12,9.12,0,0,1-2.77-.51,3.47,3.47,0,0,1-.69-.39,5.26,5.26,0,0,1,.54-1.2l1.4-2.49-2.83-.46a1.68,1.68,0,0,1-1.55-1.34c-.35-1.18-.12-1.59.69-2.13a9.88,9.88,0,0,1,1.91-1c2.6-1,4.08-3,4.41-6.09.08-.79.15-1.57.22-2.36.17-1.86.33-3.61.64-5.34a46.89,46.89,0,0,0,.47-9.18c0-.72,0-1.45,0-2.17a8.52,8.52,0,0,1,1.28-5,7.34,7.34,0,0,0,.75-7c-.77-2.2-1.55-4.38-2.33-6.57l-1.77-5L201.46,234c-3.47-9.8-7.05-19.93-10.52-29.91-.64-1.86-1.2-3.81-1.74-5.69-.62-2.13-1.25-4.33-2-6.47a94.22,94.22,0,0,0-4.48-10.32,56.56,56.56,0,0,1-4.49-12.14,9.6,9.6,0,0,0-.44-1.31c-.08-.2-.17-.43-.26-.69L176,163.25l-2.11,4-.34.61a7.54,7.54,0,0,0-.59,1.21,103,103,0,0,0-5,19.13,146.05,146.05,0,0,0-1.6,17.89c-.1,4.47-.29,9-.47,13.42-.15,3.76-.31,7.64-.42,11.46a29.18,29.18,0,0,0,.66,6.64c1.78,8.41,3.65,16.94,5.46,25.19l1.06,4.81a16.16,16.16,0,0,0,.87,2.87,190.41,190.41,0,0,1,12.06,41.62c1.35,7.58,2.19,15.09,2.83,21.45.35,3.51.46,7.14.55,10.66.05,1.51.09,3,.15,4.54,0,.91.09,1.83.15,2.75a54.85,54.85,0,0,1,.14,6.37,109.67,109.67,0,0,0,.43,14.78c.18,2.43.37,4.94.47,7.39a69.53,69.53,0,0,0,1.25,9.52c.4,2.22.78,4.33,1,6.49.4,3.74.67,6.82.85,9.69.08,1.13.06,2.28,0,3.49,0,.64,0,1.27,0,1.91q0,8.26.08,16.55c.08,16.67.15,33.9.28,50.86,0,3.39.23,6.81.44,10.11.06,1.13.13,2.26.2,3.38a10.56,10.56,0,0,0,.31,1.92c0,.19.08.37.12.53l.21,1.17,1.13.36,2.28.75c1.92.64,3.74,1.25,5.62,1.8a10.18,10.18,0,0,0,2.85.36l.63,0h.11a2.05,2.05,0,0,1,1.77.94,6.58,6.58,0,0,1,1.74,4.58A20,20,0,0,1,205.49,518a4.21,4.21,0,0,1-2.75,1.37l-4.62.45c-5.74.55-11.69,1.12-17.53,1.61-.67.05-1.42.08-2.27.08s-1.73,0-2.58-.05l-1.61,0a5.23,5.23,0,0,1-3.68-1.82c-2.79-2.79-3.6-6.13-2.48-10.23a61.38,61.38,0,0,1,2.21-6.18c.17-.42.33-.85.5-1.27,1.49-3.81,3-8.39,2.65-13.45-.21-3.11-.48-6.26-.74-9.31l-.33-3.85q-.1-1.3-.24-2.61c-.17-1.78-.35-3.62-.41-5.41a57.12,57.12,0,0,0-2.41-13.89c-1.53-5.4-3-10.9-4.53-16.22-1.43-5.13-2.9-10.43-4.37-15.64-.59-2.08-1.24-4.16-1.87-6.17-1-3.29-2.09-6.7-2.87-10.08a90.27,90.27,0,0,1-2.16-14.33,54,54,0,0,0-3.66-16.19c-2.3-5.89-5-12.72-7.88-19.39-4.7-10.88-8.24-23.09-11.16-38.41-1.34-7.08-2.5-14.33-3.63-21.33-.33-2.09-.67-4.18-1-6.26-.14-.85-.24-1.71-.35-2.61-.15-1.24-.3-2.52-.56-3.81l-2.42-12.09-1.52,12.24c-.19,1.48-.36,3-.53,4.46-.36,3.15-.73,6.41-1.24,9.56-3,18.44-6,35-11.89,50.89-1.64,4.38-3.46,8.79-5.22,13.06-1.54,3.72-3.12,7.57-4.59,11.41A110.21,110.21,0,0,0,94,384.8a32,32,0,0,0-.75,6.25l0,.79a72.66,72.66,0,0,1-3.47,18.75c-2.82,8.56-5.19,17.37-7.49,25.88q-.93,3.48-1.88,6.95c-.84,3.08-1.66,5.83-2.5,8.41a66.48,66.48,0,0,0-3,17c-.32,5.25-.75,10.61-1.32,16.39a34.7,34.7,0,0,0,2.48,16.91,69.89,69.89,0,0,1,2.8,7.9,9.16,9.16,0,0,1-2.55,9.5,6.16,6.16,0,0,1-2.67,1.66,20.72,20.72,0,0,1-4.6.57c-.41,0-.81,0-1.19-.05-3.6-.29-7.27-.66-10.81-1-3.8-.38-7.72-.78-11.6-1.08a7.19,7.19,0,0,1-5.65-3,23.17,23.17,0,0,1-4.4-11.4,6.47,6.47,0,0,1,1.25-4.54c1-1.52,1.87-1.73,2.61-1.73a2,2,0,0,1,.34,0c.23,0,.46,0,.7,0a9.2,9.2,0,0,0,2.66-.41c1.76-.54,3.5-1.13,5.33-1.76l2.29-.77,1.23-.41.13-1.29c0-.52.11-1.07.17-1.64.14-1.31.3-2.79.39-4.26.58-9.45.54-19,.51-28.3,0-3.34,0-6.79,0-10.18q0-7.61,0-15.21c0-9.48,0-19.29.14-28.93a92.89,92.89,0,0,1,2-16c.58-3.07.88-6.2,1.16-9.23l0-.2.11-1.14c.35-3.65.71-7.41.83-11.16.11-3.52.13-7.08.14-10.53,0-2.38,0-4.83.06-7.24.47-27.71,5-52.4,14-75.49a88,88,0,0,0,3.91-13.62c1.58-7.45,3.3-15.44,5.19-23.36a35.84,35.84,0,0,0,.73-9.32c0-1.33-.12-2.67-.19-4-.06-1.06-.13-2.15-.17-3.22l-.24-7.07c-.1-3.26-.21-6.63-.35-9.94-.57-13.45-2.82-25.23-6.89-36a3.44,3.44,0,0,0-.58-1,3.43,3.43,0,0,1-.24-.31l-2.25-3.11L69,167.45c-.06.17-.12.33-.18.47a8.22,8.22,0,0,0-.34,1.06,66.14,66.14,0,0,1-5.39,14.33,87.83,87.83,0,0,0-5.39,13.94c-3.52,12-7.85,23.91-12,35.46l-1.25,3.44q-1.66,4.62-3.32,9.25t-3.32,9.25a8.46,8.46,0,0,0,.68,7.87,10.29,10.29,0,0,1,1.18,7,27.57,27.57,0,0,0,.16,7.4c.09.81.18,1.57.24,2.35.08,1,.21,2.08.33,3.09s.23,1.91.31,2.85c.15,1.78.49,5.94,5,7.34a4.86,4.86,0,0,1,.81.46l.39.26c1.25.78,1.17,1.16,1,1.85-.26,1.2-.57,1.51-.93,1.59l-6.78-2.34L45,300l0,0c.4.86.29,1.17.29,1.17s-.35.36-1.37.58a6.28,6.28,0,0,1-1.34.11c-.44,0-.91,0-1.4,0s-1.15-.06-1.77-.06H37.87l-.36,1.55c-.1.43-.15.64-1.17.64a7.48,7.48,0,0,1-.87-.06,13.09,13.09,0,0,1-2.26-.41,10.24,10.24,0,0,0-2.81-.42,8.54,8.54,0,0,0-2.23.29,2.74,2.74,0,0,1-.64.08A6.74,6.74,0,0,1,24.19,302a18.64,18.64,0,0,1-8.66-14.19c-.18-1.53-.34-3.08-.5-4.73-.08-.8-.17-1.63-.26-2.51L14.29,276l-3,3.51-.51.58c-.33.37-.61.69-.89,1.06a11.71,11.71,0,0,1-4.77,4.11,4.27,4.27,0,0,1-1.7.38,3.41,3.41,0,0,1-1.09-.18,2.92,2.92,0,0,1-.31-.13c0-.06,0-.15,0-.27a3.91,3.91,0,0,1,.21-.47l.12-.28L3.46,282c.78-1.67,1.59-3.4,2.3-5.16,1.43-3.51,2.8-7,3.91-10.45.94-2.94,2.32-4.62,4.48-5.45a10.47,10.47,0,0,0,7.23-9.48c.16-1.72.46-3.42.77-5.21a58.56,58.56,0,0,0,.88-6.45c.95-14.81,4.07-30.12,9.55-46.81a89.24,89.24,0,0,0,4.19-22.58l.06-1.09c.48-7.88,1-16,2.64-23.83.92-4.26,1.76-7.69,2.66-10.8a102.1,102.1,0,0,0,3.06-18.3c0-.39.07-.78.11-1.17a33,33,0,0,1,.6-4.51c2-8.77,7.36-14,16.34-16.14A62,62,0,0,0,72.6,91.23a124.15,124.15,0,0,1,17.55-5.47l2.09-.55a54.83,54.83,0,0,0,5.21-1.73l1.75-.64a5.86,5.86,0,0,0,4-5.75c0-2.84,0-5.71-.12-8.49l0-1.39c0-2.27-.14-4.56-.23-6.78l0-.92c0-.55-.06-1.1-.11-1.68l-.06-.82-.14-1.95-2,.09h-.31c-1.47,0-3.1-.42-4.07-3.53C95.06,48.15,94.05,44.3,93,39.5A3.22,3.22,0,0,1,93.29,37a1.62,1.62,0,0,1,1.16-.7c.33-.05.62-.12,1-.19l.52-.12,1.58-.34V34.07c0-.7,0-1.41,0-2.12,0-1.56,0-3.18,0-4.75.06-2.15.13-4.24.36-6.28C98.66,14.07,102.27,9,108.6,5.8A33.18,33.18,0,0,1,123.5,2m0-2a35,35,0,0,0-15.8,4c-6.79,3.41-10.93,9-11.8,16.67-.25,2.14-.32,4.3-.38,6.45-.06,2.31,0,4.62,0,6.93-.59.13-1,.23-1.37.29-2.62.42-3.69,3-3.11,5.58.92,4.13,2,8.25,3.2,12.28.87,2.78,2.56,4.94,6,4.94h.41c.06.89.13,1.67.16,2.44.1,2.56.21,5.11.27,7.67.08,3.27.19,6.54.16,9.82A3.87,3.87,0,0,1,98.53,81c-2.26.81-4.48,1.73-6.79,2.33C85,85,78.24,86.66,71.82,89.39a60.58,60.58,0,0,1-10,3.18c-9.51,2.21-15.63,8-17.84,17.64a47,47,0,0,0-.75,5.94,100.05,100.05,0,0,1-3,17.93c-1,3.61-1.9,7.27-2.69,10.94-1.78,8.31-2.24,16.78-2.75,25.22a87.56,87.56,0,0,1-4.09,22.08c-5.05,15.39-8.61,31.08-9.64,47.3-.25,3.88-1.29,7.72-1.65,11.6a8.54,8.54,0,0,1-6,7.81c-3.06,1.17-4.68,3.62-5.66,6.7-1.12,3.49-2.48,6.91-3.86,10.31-1,2.51-2.23,4.94-3.35,7.4a7,7,0,0,0-.45,1.11,2,2,0,0,0,1.56,2.76,5.28,5.28,0,0,0,1.73.29,6.27,6.27,0,0,0,2.48-.54,13.76,13.76,0,0,0,5.59-4.75c.35-.46.75-.88,1.31-1.53.28,2.68.49,5,.76,7.27a20.73,20.73,0,0,0,9.55,15.62,8.31,8.31,0,0,0,4.44,1.77,4.72,4.72,0,0,0,1.15-.15,6.94,6.94,0,0,1,1.72-.22,7.76,7.76,0,0,1,2.26.35,16.17,16.17,0,0,0,2.59.47,10.3,10.3,0,0,0,1.09.07c1.49,0,2.72-.47,3.12-2.19,1.11,0,2.17.1,3.17.1a7.85,7.85,0,0,0,1.76-.16c3-.64,3.66-2.31,2.26-5h0l-.07-.08.1,0,0,0c2.07,0,2.84-1.44,3.23-3.19s-.17-2.89-1.91-4a8.07,8.07,0,0,0-1.67-.93c-2.79-.86-3.43-3.05-3.64-5.59-.16-2-.48-4-.64-5.94-.25-3.09-.89-6.12-.41-9.29a12.17,12.17,0,0,0-1.47-8.36,6.43,6.43,0,0,1-.49-6.13c2.23-6.16,4.41-12.34,6.64-18.5,4.68-12.93,9.44-25.82,13.33-39a84.75,84.75,0,0,1,5.27-13.61,68.9,68.9,0,0,0,5.54-14.77,13.5,13.5,0,0,1,.46-1.33,5,5,0,0,1,.57.81,112.94,112.94,0,0,1,6.76,35.39c.24,5.67.38,11.34.6,17,.08,2.4.28,4.78.35,7.18a33.47,33.47,0,0,1-.68,8.8c-1.85,7.78-3.54,15.59-5.2,23.4A85.33,85.33,0,0,1,69.47,274C60,298.49,55.8,324,55.35,350.18c-.11,5.91,0,11.83-.2,17.74-.13,4.06-.54,8.12-.93,12.17-.29,3.09-.58,6.2-1.15,9.25a93.41,93.41,0,0,0-2,16.38c-.16,14.72-.13,29.44-.19,44.15-.06,12.79.29,25.59-.49,38.37-.13,2.05-.39,4.09-.56,5.82-2.75.92-5.14,1.77-7.57,2.51a7.29,7.29,0,0,1-2.08.33l-.51,0-.53,0a5,5,0,0,0-4.26,2.6,8.49,8.49,0,0,0-1.59,5.89,25,25,0,0,0,4.79,12.38,9.2,9.2,0,0,0,7.1,3.83c7.48.58,14.92,1.51,22.4,2.11.45,0,.89.06,1.35.06a22.12,22.12,0,0,0,5.06-.63,8.11,8.11,0,0,0,3.61-2.18,11.12,11.12,0,0,0,3.08-11.45,71.9,71.9,0,0,0-2.88-8.12,33,33,0,0,1-2.34-16c.54-5.48,1-11,1.32-16.47a65.37,65.37,0,0,1,3-16.46c.92-2.81,1.75-5.65,2.53-8.5,3-10.94,5.79-21.94,9.34-32.73a74.6,74.6,0,0,0,3.57-19.28,34.1,34.1,0,0,1,.73-6.64,110.29,110.29,0,0,1,3.71-12.13c3.15-8.21,6.74-16.25,9.82-24.48,6.2-16.56,9.18-33.9,12-51.27.76-4.67,1.2-9.4,1.78-14.1.42,2.11.55,4.25.89,6.35,1.5,9.22,2.91,18.46,4.65,27.64,2.53,13.29,5.9,26.35,11.29,38.83,2.75,6.39,5.32,12.86,7.85,19.33a52.19,52.19,0,0,1,3.52,15.59,93,93,0,0,0,2.21,14.66c1.28,5.51,3.22,10.87,4.76,16.33,3,10.61,5.9,21.25,8.91,31.86a55.61,55.61,0,0,1,2.33,13.42c.1,2.71.43,5.41.66,8.11.36,4.38.77,8.75,1.06,13.13s-.92,8.53-2.51,12.59a76.18,76.18,0,0,0-2.77,7.66c-1.25,4.54-.47,8.7,3,12.16a7.13,7.13,0,0,0,5.05,2.4c1.41,0,2.82.1,4.23.1.82,0,1.63,0,2.44-.09,7.39-.61,14.78-1.35,22.17-2a6.25,6.25,0,0,0,4-2,22.09,22.09,0,0,0,6.3-14.88,8.54,8.54,0,0,0-2.18-5.92,4,4,0,0,0-3.33-1.69h-.18l-.56,0a8.24,8.24,0,0,1-2.28-.28c-2.59-.76-5.13-1.64-7.85-2.53a16.9,16.9,0,0,1-.4-2.19c-.24-4.46-.6-8.93-.63-13.4-.17-22.46-.25-44.93-.36-67.4,0-1.84.1-3.69,0-5.52-.21-3.26-.52-6.52-.86-9.77-.56-5.32-2-10.48-2.25-15.88-.29-7.32-1.35-14.6-.91-22a91,91,0,0,0-.28-9.33c-.21-5.1-.2-10.23-.71-15.31-.73-7.22-1.58-14.46-2.85-21.6a193.23,193.23,0,0,0-12.19-42.05,13.55,13.55,0,0,1-.75-2.52c-2.2-10-4.41-20-6.52-30a26.71,26.71,0,0,1-.62-6.17c.23-8.3.71-16.6.89-24.9A144.84,144.84,0,0,1,170,188.46a102.16,102.16,0,0,1,4.87-18.77,14.49,14.49,0,0,1,.81-1.53c.29.81.52,1.28.64,1.79a58.34,58.34,0,0,0,4.64,12.56,93.26,93.26,0,0,1,4.39,10.11c1.43,4,2.37,8.13,3.75,12.13,4.59,13.22,9.28,26.39,13.94,39.58,1.35,3.85,2.75,7.68,4.09,11.53a5.34,5.34,0,0,1-.5,5.21,10.54,10.54,0,0,0-1.64,6.17c0,3.67.24,7.34-.42,11-.46,2.58-.6,5.22-.88,7.84-.22,2.05-1,3.65-3.11,4.42a11.07,11.07,0,0,0-2.32,1.25,3.45,3.45,0,0,0-1.51,4.35,3.65,3.65,0,0,0,3.15,2.75c-1.3,2.32-1.09,3.39,1.06,4.39a11.24,11.24,0,0,0,3.68.7h.27a18.14,18.14,0,0,0,2.26-.33c.18,1.94,1.41,2.32,2.8,2.32l.72,0c1.35-.09,2.68-.46,4-.64a12.84,12.84,0,0,1,1.51-.14,3,3,0,0,1,.8.09,7,7,0,0,0,1.68.21,6.59,6.59,0,0,0,3.42-1c4.1-2.49,7.53-5.69,9.32-10.3a35.23,35.23,0,0,0,2-11.52c0-.63.1-1.27.15-1.85,1.8,1.85,3.37,3.65,5.14,5.22a6.32,6.32,0,0,0,4.26,1.58l.65,0c2.66-.23,3.47-1.7,2.27-4.11-.61-1.21-1.41-2.34-1.9-3.6-1.77-4.53-3.43-9.1-5.14-13.66-.34-.9-.74-1.78-1.06-2.68a6.11,6.11,0,0,0-2.88-3.4c-1.67-.94-3.31-1.92-5-2.85a4,4,0,0,1-2.06-2.74,92.39,92.39,0,0,1-2.14-13.71c-.59-5.16-1-10.34-1.65-15.48a140.37,140.37,0,0,0-6.23-26.57A125,125,0,0,1,211.29,164a107.1,107.1,0,0,0-4-26.48,126.15,126.15,0,0,1-4.24-24.75,23,23,0,0,0-18.48-20.4A47.87,47.87,0,0,1,176.35,90a134.06,134.06,0,0,0-18-5.79c-3.25-.81-6.43-1.89-9.62-2.92a4.47,4.47,0,0,1-3.35-4.89c.15-4.32.08-8.64.21-13,.06-2.14.35-4.27.54-6.51,2.81-.17,4.26-1.92,5.15-4.19,1.56-3.94,3-7.91,4.49-11.88a7.18,7.18,0,0,0,.32-2.13c.18-3.37-.69-4.39-4.06-4.93a3.36,3.36,0,0,1-.75-.33c0-.77-.09-1.56-.12-2.34-.11-3.11-.14-6.23-.35-9.34-.47-6.9-3.51-12.47-9.35-16.19A33,33,0,0,0,123.5,0Z"/>
        </g>
    </g>
</svg>
