<svg class="front"  xmlns="http://www.w3.org/2000/svg" width="253.3" height="522.92" viewBox="0 0 253.3 522.92">
	<g class="front">
		<g class="Front_Muscle_Groups">
			<g id="Biceps">
				<path id="Left_Bicep" data-muscles="Bicep Left" class="cls-1" d="M214.12,162.57c-.3-3.65-.58-7.31-.94-11-.18-1.83-.56-4.06-.86-5.93-.18-1.16-1.95-2.42-2.71-3.36-1.88-2.34-4.76-4.1-7.33-5.56-3-1.7-6.1-3.16-9.11-4.81a23.18,23.18,0,0,1-4.57-3.08c-1.34-1.23-2.5-2.64-3.72-4,.59,5.37-1.49,10.36-2.91,15.43a35.35,35.35,0,0,0-.45,15.85c1.73,9.49,6.24,18.17,12,25.83a95.3,95.3,0,0,0,11.72,13.1c3.7-4.68,5.1-10.37,6.69-16a7.75,7.75,0,0,1,.77-1.8,7.44,7.44,0,0,0,.51-.78c.21-.43,1.92-.51,1.87-1-.17-1.58-.24-3.1-.37-4.5C214.43,168.06,214.37,165.52,214.12,162.57Z"/>
				<path id="Right_Bicep" data-muscles="Bicep Right" class="cls-1" d="M39.36,162.35c.31-3.65.61-7.35,1-11a42.62,42.62,0,0,1,.94-6.06c.31-1.13,1.78-2,2.55-3,1.88-2.34,4.75-4.1,7.32-5.56,3-1.7,6.1-3.16,9.11-4.81a23.18,23.18,0,0,0,4.57-3.08c1.35-1.23,2.51-2.64,3.72-4-.59,5.37,1.5,10.36,2.91,15.43a35.35,35.35,0,0,1,.45,15.85c-1.73,9.49-6.24,18.17-12,25.83a94.66,94.66,0,0,1-11.72,13.1c-3.7-4.68-5.09-10.37-6.69-16a7,7,0,0,0-.77-1.8c-.15-.25-.38-.52-.51-.78-.2-.43-1.75-.82-1.64-1.3a38.4,38.4,0,0,0,.28-4.16C39.25,168.14,39.12,165.29,39.36,162.35Z"/>
			</g>
			<g id="Brachioradialis">
				<path id="Brachioradialis_Right" data-muscles="Brachioradialis Right" class="cls-1" d="M47.51,199.39c-1.92-4-3.81-7.93-5.62-11.93a14.23,14.23,0,0,1-1.21-4.61,6.63,6.63,0,0,1-.14-2,3.66,3.66,0,0,1,.11-1.29,7.07,7.07,0,0,0,.18-1.88,4.81,4.81,0,0,0-.86-1.26,4.45,4.45,0,0,0-1.39-.85s-.48,3.75-.53,3.75a26.19,26.19,0,0,1-1.56,7.8c-1.17,3-2.67,6.52-3.81,9.5-2.24,5.82-4.47,11.29-6.47,17.19-2.33,6.86-2.68,14.5-3.63,21.62-1.06,8-2,15.21-3.37,23.16-.07.39,0,.78,0,1.1.43.34.62.63,1.13.71a64.1,64.1,0,0,1,3.88-9.51c3.53-7.47,8.27-14.23,13-21,3-4.17,5.92-8.36,8.53-12.75a33.25,33.25,0,0,0,3-7.76C49.82,205.93,49.06,202.59,47.51,199.39Z"/>
				<path id="Brachioradialis_Left" data-muscles="Brachioradialis Left" class="cls-1" d="M205.8,199.39c1.92-4,3.81-7.93,5.62-11.93a14.23,14.23,0,0,0,1.21-4.61,5.67,5.67,0,0,0,.18-1.47c0-.74-.8-2.62-.52-3.3,0,.08.4-.73.52-.94l1-.95a3.61,3.61,0,0,0,1.29-.56c.29,2.93.72,8.43,2.1,11.54,1.29,2.93,3.73,10.76,5.1,13.65,2.56,5.4,2.69,7,4.69,12.88,2.32,6.86,3,14.82,3.72,21.84a175.34,175.34,0,0,0,3.48,23c.08.39.63,3.14.67,3.46-.41.36-.5,1.37-1,1.45-.61-4.84-3.24-9.47-4.72-12.6a141.08,141.08,0,0,0-12.93-21.18c-3-4.17-6-8.13-8.64-12.52a32.81,32.81,0,0,1-3.05-7.76C203.49,205.93,204.25,202.59,205.8,199.39Z"/>
			</g>
			<g id="Hands">
				<path id="Hand_Left" data-muscles="Hand Left" class="cls-1" d="M252.77,290.51c-.57-1.14-1.36-2.19-1.82-3.37-1.81-4.6-3.53-9.24-5.28-13.87-.34-.9-.65-1.8-1-2.7a6.21,6.21,0,0,0-2.71-3.24c-1.45-.85-2.85-1.8-4.37-2.51A4.86,4.86,0,0,1,235,262c-.36.47-.75.95-1.14,1.45a4.92,4.92,0,0,0,1.19,1.7,48.25,48.25,0,0,0,4.72,3.69,6.63,6.63,0,0,1,2.61,3.32c.42,1.21,1,2.36,1.39,3.57a63.73,63.73,0,0,0,7.69,14.58,6.91,6.91,0,0,1,.5.82c.66,1.35.15,2.31-1.36,2.11a5.87,5.87,0,0,1-3.18-1.39c-2-2-3.87-4.24-5.7-6.45-1-1.16-1.74-2.48-2.63-3.71a4.65,4.65,0,0,0-4.16-1.9,23.08,23.08,0,0,1-5-.38,10,10,0,0,1-7-5.41,6.2,6.2,0,0,0-.69-.95s-.14,0-.21,0c-1,2.29-.15,4.68,2.32,6.14a14.26,14.26,0,0,0,8.8,1.72c3.4-.32,4.34.51,4.83,3.91a14.88,14.88,0,0,1-.31,5.2c-.65,3.21-1.16,6.45-1.77,9.67a22.33,22.33,0,0,1-.91,3.71c-1.2,3.22-2.52,6.4-3.81,9.58a15.28,15.28,0,0,1-.83,1.73c-.81,1.45-1.61,1.91-2.6,1.57a3,3,0,0,1-1.54-3.2,15.89,15.89,0,0,1,.59-1.58c.72-2,1.29-4.12,2.18-6.07,1.38-3,1.19-6.23,1.75-9.35a3.39,3.39,0,0,0-.16-.89c-1.28,1.22-1.42,2.74-1.81,4.14a38.31,38.31,0,0,1-8.56,16.1,4.24,4.24,0,0,1-.75.59c-.33.22-.67.42-1,.6-2-1.25-2.51-2.45-1.83-4.39a18.75,18.75,0,0,1,1.6-3.2c.76-1.31,1.61-2.58,2.43-3.85a9.67,9.67,0,0,0,2-5.78,18.15,18.15,0,0,1,.53-3.45,3.16,3.16,0,0,0-1.82,2.79,14.08,14.08,0,0,1-2.44,5.93,27.44,27.44,0,0,1-6.58,7.54c-.71.56-1.55,1.41-2.54.67S209,311,209.48,310c1.52-3,2.94-6.09,5.5-8.36,2.27-2,2.09-4.75,2.64-7.31a4.29,4.29,0,0,0-2,3.12,6.8,6.8,0,0,1-4.16,4.92c-1.72.76-3.3,1.95-5.36,1.71-.52-1.09.12-1.77.68-2.41.73-.84,1.64-1.54,2.32-2.42a36,36,0,0,0,2.21-3.36,17.58,17.58,0,0,0,1.39-2.51c.73-1.71,1.54-3.45.28-5.27a1.17,1.17,0,0,1,0,.6,17.62,17.62,0,0,0-2.14,5.77,5.56,5.56,0,0,1-1.74,2.42c-1,.93-2.22,1.58-3.15,2.53a7.51,7.51,0,0,0-1.77,2.76c-.64,2,.52,3.32,2.56,3.13a10.09,10.09,0,0,0,2.48-.74c.93-.34,1.84-.75,2.75-1.13-1,1.35-2.07,2.7-3.09,4.06a5.77,5.77,0,0,0-1.11,4.72c.35,1.86,1.81,2.79,3.53,2a16.42,16.42,0,0,0,3.22-2.36c.63-.51,1.2-1.11,1.8-1.68a10.88,10.88,0,0,0-.52,2.19,10.62,10.62,0,0,0,.1,3.74c.7,2.24,2.51,2.71,4.29,1.18a34.87,34.87,0,0,0,3.05-3.36c.33-.36.68-.71,1.16-1.21a10.38,10.38,0,0,0,.3,1.19,12,12,0,0,0,.83,1.73c1.46,2.28,4,2.38,5.43.08,1.77-2.85,3.32-5.84,5-8.74a24.73,24.73,0,0,0,3-10c.3-3,.73-6,1.16-9.29.63.68,1,1.06,1.34,1.46a16.17,16.17,0,0,0,6.14,4.87,6.65,6.65,0,0,0,3.23.45C253.26,294.1,253.88,292.72,252.77,290.51Z"/>
				<path id="Hand_Right" data-muscles="Hand Right" class="cls-1" d="M47.56,299.55a13.16,13.16,0,0,0-2.81-2.22,4.71,4.71,0,0,1-2.42-3.64,11.43,11.43,0,0,0-2.14-5.17c-1,1.77-.2,3.37.53,4.93a21.29,21.29,0,0,0,5.46,7.76,11.55,11.55,0,0,1,1.64,2.57c-.74.17-1.25.47-1.57.32A40.46,40.46,0,0,1,39.84,301c-1-.67-1.51-2.17-2-3.39s-.88-2.51-2.06-3.33c.44,2.79.53,5.59,3,7.71s3.71,5.36,5.23,8.26c.6,1.14.35,2.15-1,3.11a24.13,24.13,0,0,1-3.18-2.2A30.37,30.37,0,0,1,32.92,302a27.84,27.84,0,0,1-.8-2.74,11.24,11.24,0,0,0-1.61-3.11c.35,3,0,6.12,2,8.78a51.93,51.93,0,0,1,3.66,5.91c1.29,2.37.93,4.09-1.22,5.94a20,20,0,0,1-2.55-2.25,33.79,33.79,0,0,1-6-10,54,54,0,0,1-2.23-6.8,5.77,5.77,0,0,0-1.31-2.44c.31,3-.23,6,1.07,8.86,1.18,2.61,2,5.4,2.9,8.11a3.9,3.9,0,0,1,.32,1.62,2.52,2.52,0,0,1-1.62,2.44c-1.26.36-2-.47-2.42-1.47-2.41-5.56-5.22-11-6-17.13-.33-2.77-1.11-5.49-1.5-8.26a20.75,20.75,0,0,1-.18-5.22c.28-2.62,1.82-3.64,4.45-3.34a15,15,0,0,0,8.42-1.28,5.78,5.78,0,0,0,3.51-4.81,12,12,0,0,0-.29-2.24A16.33,16.33,0,0,0,30.46,274c-2.14,4-5.65,6.09-10,5.76-4.15-.32-6.38,1.51-8.22,4.78a23.65,23.65,0,0,1-6.95,7.84,5.52,5.52,0,0,1-2.87.86c-1.3,0-1.7-.73-1-1.92.92-1.67,2-3.29,3-4.9a58.23,58.23,0,0,0,6.19-13.2,8.22,8.22,0,0,1,3.73-4.8c.83-.48,1.55-1.13,2.33-1.69A9.34,9.34,0,0,0,20.2,261c.05-.2.12-.39.18-.59a4.09,4.09,0,0,1-1.48-.8c-.68,4.37-.06,3.62-4.44,5.77a12.75,12.75,0,0,0-7.21,9,5,5,0,0,1-.21.69c-1.57,4.09-3.13,8.19-4.74,12.27a23.66,23.66,0,0,1-1.24,2.33,11.79,11.79,0,0,0-.86,1.7,2,2,0,0,0,1.31,2.85,5.53,5.53,0,0,0,4.85-.42A17.61,17.61,0,0,0,12,289a16.64,16.64,0,0,1,1.31-1.27c.35,3,.58,5.58,1,8.17s.62,5.34,1.65,7.69c1.78,4.09,4.12,7.93,6.26,11.86a3.12,3.12,0,0,0,3.06,1.9c1.6-.1,2.4-1.14,3-2.4a23.2,23.2,0,0,0,.84-2.3c.44.53.68.83.94,1.13a41.51,41.51,0,0,0,3.2,3.55c1.68,1.5,3.45,1.12,4.11-1a12.27,12.27,0,0,0,.12-4.2,13.27,13.27,0,0,0-.57-2.44c1.32,1.34,2.58,2.75,4,4a2.9,2.9,0,0,0,3.56.44,3.16,3.16,0,0,0,1.32-3.38,6.44,6.44,0,0,0-.85-2.46,33.78,33.78,0,0,0-2.31-3c-.5-.63-1-1.24-1.68-2.06a39.21,39.21,0,0,0,5.49,2.1c2.08.45,3.38-1.08,2.78-3.14A6.72,6.72,0,0,0,47.56,299.55Z"/>
			</g>
			<g id="Deltoids">
				<path id="Deltoid_Left" data-muscles="Deltoid Left" class="cls-1" d="M210.94,139.71a151.17,151.17,0,0,1-3.51-16.47c-.45-2.78-.82-5.68-1.14-8.48a45,45,0,0,0-1-6.75,22.58,22.58,0,0,0-15.86-15.59c-2.72-.78-5.49-1.27-8.16-2.21-.71-.25-1.41-.53-2.1-.8a3.61,3.61,0,0,0-1-.38,6.3,6.3,0,0,0-.86.63,4.4,4.4,0,0,0-.92.55c-.08.11,0,.36-.15.51s-1.23.25-.9.51l-2.81.77c1.15,1.47,3,2.4,4.35,3.71a23,23,0,0,1,3.58,4.36,29.88,29.88,0,0,1,4,10.8,63.55,63.55,0,0,1,.67,7.41,10.31,10.31,0,0,0,1.84,5.44,17.81,17.81,0,0,0,5,4.16c2.11,1.37,4.28,2.66,6.43,4,2.34,1.41,4.74,2.72,7,4.18a14.63,14.63,0,0,1,2.8,2.14c.41.44.64,1,1,1.45s.05.13.48.27.84.09,1.28.22Z"/>
				<path id="Deltoid_Right" data-muscles="Deltoid Right" class="cls-1" d="M42.32,139.45a155.78,155.78,0,0,0,3.53-16.56q.66-4.17,1.14-8.39a45.17,45.17,0,0,1,1-6.76A22.63,22.63,0,0,1,63.92,92.17c2.72-.78,5.48-1.27,8.16-2.21.71-.25,1.4-.53,2.1-.8a3.61,3.61,0,0,1,1-.38,7.83,7.83,0,0,1,.86.63c.22.15.76.34.92.55s0,.36.15.51,1.23.25.9.51l2.81.77c-1.16,1.47-3,2.4-4.36,3.71a23.37,23.37,0,0,0-3.57,4.36,29.9,29.9,0,0,0-4,10.8A65.78,65.78,0,0,0,68.2,118a10.31,10.31,0,0,1-1.84,5.44,17.72,17.72,0,0,1-5,4.16c-2.1,1.37-4.27,2.66-6.42,4-2.34,1.41-4.74,2.72-7.05,4.18a14.26,14.26,0,0,0-2.79,2.14c-.41.44-.64,1-1,1.45s0,.13-.47.27-.93.11-1.36.24C42.25,139.73,42.29,139.59,42.32,139.45Z"/>
			</g>
			<g id="Trapezius">
				<path id="Trapezius_Left" data-muscles="Trapezius Left" class="cls-1" d="M162.93,84.17c-3.56-.9-7.18-1.9-10.64-3.1-2.64-.91-3.83-2.67-3.69-5.69.18-3.81.41-7.62.62-11.43.17-3.06-.25-6.56,2.61-8.5-.18,0-.55-.19-.71-.11a7.84,7.84,0,0,0-.53.67,10.81,10.81,0,0,0-1,1,11.89,11.89,0,0,0-1.51,2.78c-.77,1.87-1.24,3.85-2,5.72-1.09,2.71-2.39,5.32-3.53,8-.23.56-.63,1.13-.84,1.67a9.15,9.15,0,0,0-.23,1.51c-.23,1.41-.54,2.81-.82,4.21A41.29,41.29,0,0,0,139.6,90c0,1.31.12,3,1.72,3.14a8.74,8.74,0,0,0,2.74-.35c1.54-.32,3.08-.61,4.62-.89,3-.53,5.93-1,8.91-1.32a84,84,0,0,1,10.14-.68A40,40,0,0,1,173,90a8.32,8.32,0,0,0,.88.24,5.94,5.94,0,0,0,1.4-.56c.82-.31,1.64-.54,2.47-.82A125.93,125.93,0,0,0,162.93,84.17Z"/>
				<path id="Trapezius_Right" data-muscles="Trapezius Right" class="cls-1" d="M90.57,84.13c3.55-.89,7.07-2,10.54-3.16a4.92,4.92,0,0,0,3.62-5.61c-.33-3.8-.33-7.62-.54-11.43-.17-3.06.31-6.61-2.79-8.54a3,3,0,0,1,.88,0c.11.06.42.56.54.67a10.71,10.71,0,0,1,1,1,12.19,12.19,0,0,1,1.48,2.87c.77,1.87,1.28,3.76,2,5.63,1.09,2.71,2.4,5.32,3.53,8,.24.56.64,1.13.84,1.67a8.2,8.2,0,0,1,.23,1.51c.23,1.41.54,2.81.82,4.21A41.92,41.92,0,0,1,113.81,90c0,1.31-.13,3-1.73,3.14a8.82,8.82,0,0,1-2.74-.35c-1.54-.32-3.08-.61-4.62-.89-3-.53-5.93-1-8.91-1.32a83.66,83.66,0,0,0-10.13-.68,39.94,39.94,0,0,0-5.25.12,8.48,8.48,0,0,1-.89.24,5.87,5.87,0,0,1-1.39-.56c-.82-.31-1.57-.57-2.4-.85A127.58,127.58,0,0,1,90.57,84.13Z"/>
			</g>
			<g id="Pectoralis_Major" data-muscles="Pectoralis Major">
				<path id="Pectoralis_Major_Left" data-muscles="Pectoralis Major Left" class="cls-1" d="M132.86,154.79a32.29,32.29,0,0,0,10.38,1.54,71.13,71.13,0,0,0,10.72-.57,43.3,43.3,0,0,0,9.79-2.36,35,35,0,0,0,8.2-4.59,7.32,7.32,0,0,0,1.45-1.28q.89-1,1.83-2a13.67,13.67,0,0,1,1.64-1.59,6.82,6.82,0,0,0,1.34-1.91,27.2,27.2,0,0,0,3.88-8.8,70,70,0,0,0,1.35-10.61A44.1,44.1,0,0,0,183,112c-1.08-6-3.58-12.39-8.2-16.58a14.89,14.89,0,0,0-7.11-3.66,31,31,0,0,0-9.61.06,75.59,75.59,0,0,0-19.71,5.46,10.29,10.29,0,0,0-5.63,5.28,39.54,39.54,0,0,0-2.84,9.77,135.4,135.4,0,0,0-1.8,21.94c-.07,3.66,0,7.32-.32,11a9.19,9.19,0,0,0,2,7.37A7.49,7.49,0,0,0,132.86,154.79Z"/>
				<path id="Pectoralis_Major_Right" data-muscles="Pectoralis Major Right" class="cls-1" d="M120.39,154.79A32.19,32.19,0,0,1,110,156.33a71.33,71.33,0,0,1-10.73-.57,43.35,43.35,0,0,1-9.78-2.36,35,35,0,0,1-8.2-4.59,7.1,7.1,0,0,1-1.46-1.28q-.87-1-1.83-2a12.88,12.88,0,0,0-1.63-1.59A6.82,6.82,0,0,1,75.05,142a27.2,27.2,0,0,1-3.88-8.8,67.52,67.52,0,0,1-1.35-10.61A44.1,44.1,0,0,1,70.3,112c1.08-6,3.57-12.39,8.19-16.58a15,15,0,0,1,7.12-3.66,30.91,30.91,0,0,1,9.6.06,75.55,75.55,0,0,1,19.72,5.46,10.33,10.33,0,0,1,5.63,5.28,39.54,39.54,0,0,1,2.84,9.77,135.4,135.4,0,0,1,1.8,21.94c.06,3.66,0,7.32.32,11a9.23,9.23,0,0,1-2,7.37A7.46,7.46,0,0,1,120.39,154.79Z"/>
			</g>
			<g id="External_Oblique_External_Oblique_Abs">
				<path id="External_Oblique_External_Oblique_Abs_Left" data-muscles="External Oblique Abs Left" class="cls-1" d="M182,166.62c-1.17-3.58-2.15-7.22-3-10.89q-.6-2.72-1.08-5.44a31.33,31.33,0,0,1-.78-5.42,10.51,10.51,0,0,1-3.54,3.63,7.62,7.62,0,0,0-1.7,1.34,14.87,14.87,0,0,1-1.9,1.82c-1.31,1.07-2.74,2-4.1,3-.66.5-1.35,1-1.29,1.89a18.15,18.15,0,0,0,1.36,4.27q.93,2.81,1.79,5.63c1.15,3.83,2.17,7.7,3,11.61q.74,3.34,1.3,6.74c.32,1.89,1.09,4.28-.22,6-1.11-4.92-2.1-9.87-3.29-14.77s-2.58-9.45-4-14.13c-.34-1.1-.68-2.2-1-3.3-.08-.26-.34-1.7-.56-1.83s-1.18.07-1.47.11a11.55,11.55,0,0,0-4.85,1.73c-3.26,2.13-4.41,5.8-5,9.48-.75,4.78,0,9.58.38,14.37.38,5.1.67,10.21,1,15.32s.5,10.07.33,15.11A147.38,147.38,0,0,1,152,228c-.46,3.3-1.88,9.79,3.16,9.91a16.39,16.39,0,0,0,7.29-2c1.21-.57,2.41-1.17,3.61-1.77l1.09-.58.63-.36c.18-.1.71-.56.74-.27a4.56,4.56,0,0,1,2.32-.51c.3,0,.32,0,.44-.17a5.67,5.67,0,0,0,.08-1.94c0-2.06,0-4.13-.05-6.2,0-4.35.07-8.72.22-13.07a76.61,76.61,0,0,1,1.27-12.82c.83-4.1,2.34-8,3.57-12,1.33-4.33,2.3-8.74,3.48-13.12l.2.41a16.24,16.24,0,0,1,1.21-3.58c.24-.52.5-1,.78-1.55s.3-.44.24-.89A4.4,4.4,0,0,0,182,166.62Z"/>
				<path id="External_Oblique_External_Oblique_Abs_Right" data-muscles="External Oblique Abs Right" class="cls-1" d="M71.59,166.62c1.17-3.58,2.15-7.22,3-10.89q.6-2.72,1.07-5.44a30.42,30.42,0,0,0,.79-5.42A10.51,10.51,0,0,0,80,148.5a7.34,7.34,0,0,1,1.69,1.34,15.64,15.64,0,0,0,1.91,1.82c1.31,1.07,2.74,2,4.1,3,.66.5,1.34,1,1.29,1.89a18.62,18.62,0,0,1-1.36,4.27q-.93,2.81-1.79,5.63c-1.15,3.83-2.17,7.7-3,11.61-.49,2.23-.93,4.48-1.3,6.74-.32,1.89-1.09,4.28.22,6,1.1-4.92,2.1-9.87,3.29-14.77s2.58-9.45,4-14.13c.34-1.1.68-2.2,1-3.3a7.54,7.54,0,0,1,.55-1.83c.26-.17,1.18.07,1.47.11a11.54,11.54,0,0,1,4.86,1.73c3.26,2.13,4.41,5.8,5,9.48.75,4.78,0,9.58-.38,14.37-.38,5.1-.67,10.21-1,15.32s-.5,10.07-.33,15.11A147.38,147.38,0,0,0,101.58,228c.46,3.3,1.88,9.79-3.16,9.91a16.39,16.39,0,0,1-7.29-2c-1.21-.57-2.42-1.17-3.61-1.77l-1.09-.58-.63-.36c-.18-.1-.71-.56-.74-.27a4.56,4.56,0,0,0-2.32-.51c-.3,0-.32,0-.44-.17-.24-.37-.08-1.49-.09-1.94,0-2.06,0-4.13.06-6.2,0-4.35-.08-8.72-.22-13.07a77.68,77.68,0,0,0-1.27-12.82c-.83-4.1-2.34-8-3.57-12-1.33-4.33-2.3-8.74-3.48-13.12-.07.13-.13.27-.2.41a16.78,16.78,0,0,0-1.21-3.58c-.24-.52-.5-1-.78-1.55s-.3-.44-.24-.89A4.4,4.4,0,0,1,71.59,166.62Z"/>
			</g>
			<g id="Rectus_Abdominals" data-muscles="Rectus Abdominals">
				<path id="Rectus_Abdominal_Left" data-muscles="Rectus Abdominal Left" class="cls-1" d="M127.87,238.21c.28-4.61.58-10.43,1-16.24.18-2.43.77-3.08,3.11-3.6a37.54,37.54,0,0,1,14.25-.21c2.48.41,2.91,1.15,3,3.79.38,7.3-1.16,14.3-3.29,21.2a50.3,50.3,0,0,1-6.55,14.07,14.38,14.38,0,0,1-6.25,5.43c-2.48,1-3.37.62-3.86-2a45.76,45.76,0,0,1-.81-6.16C128.24,249.48,128.11,244.45,127.87,238.21Z"/>
				<path id="Rectus_Abdominal_Right" data-muscles="Rectus Abdominal Right" class="cls-1" d="M125.54,240.74c-.36,5.46-.79,12.06-1.22,18.67,0,.24-.07.47-.11.71-.56,3.23-1.57,3.74-4.57,2.27a15.56,15.56,0,0,1-5.89-5.5,53,53,0,0,1-7-15.95C105.11,235,103.83,229,104,222.78a15.19,15.19,0,0,1,.13-1.91,2.67,2.67,0,0,1,2.45-2.55c2.92-.25,5.84-.51,8.77-.58a24.85,24.85,0,0,1,5.23.49c3.27.63,3.89,1.32,4.08,4.6C125,228.4,125.22,234,125.54,240.74Z"/>
			</g>
			<g id="Abdominals_Right" data-muscles="Abdominals Right" class="cls-1">
				<path d="M125.42,206.77c-.2,2.14-.43,4.28-.58,6.43a2.17,2.17,0,0,1-2.24,2.3c-3.17.14-6.35.28-9.52.24a51.2,51.2,0,0,1-6.66-.61c-1.81-.27-2.3-.71-2.31-2.49,0-3.82,0-7.65.29-11.46.14-2,.62-2.28,2.55-2.53a59.58,59.58,0,0,1,15.5.12c2,.27,2.59.86,2.73,3,.12,1.67,0,3.35,0,5Z"/>
				<path d="M125.11,187.77c0,1.83.11,3.68,0,5.5-.17,2.29-.7,2.75-2.89,3.07a49.29,49.29,0,0,1-13.83,0c-3-.39-3.84-1.18-3.78-4.17.06-3.26.51-6.5.83-9.75.17-1.82,1.35-2.61,3-2.79a58.07,58.07,0,0,1,14.31,0c1.73.25,2.2.66,2.34,2.47s0,3.83,0,5.75Z"/>
				<path d="M115.69,177.7c-2.38-.21-4.69-.34-7-.62-2.46-.3-3-1.11-2.61-3.53,1.11-6.53,4.73-10.41,11.86-12.24a17.48,17.48,0,0,1,4.51-.42c1.8,0,2.34.62,2.67,2.43a35.19,35.19,0,0,1,0,11.22c-.26,1.83-.75,2.35-2.59,2.57C120.26,177.37,117.94,177.51,115.69,177.7Z"/>
			</g>
			<g id="Abdominals_Left" data-muscles="Abdominals Left" class="cls-1">
				<path  d="M139.5,198.1c2.45.2,4.76.31,7.05.58,1.81.21,2.35.78,2.57,2.6a51,51,0,0,1,.08,11.91,2,2,0,0,1-1.61,1.83c-.23,0-.46.12-.7.16a56.08,56.08,0,0,1-15.95.36c-1.22-.18-2.17-.69-2.35-2a41.24,41.24,0,0,1-.29-12.15c.32-2,.69-2.42,2.75-2.63C133.9,198.46,136.77,198.31,139.5,198.1Z"/>
				<path d="M127.89,187.29c.17-2,.31-3.88.5-5.78a2,2,0,0,1,2.06-1.93c3.34-.12,6.68-.22,10-.25,1.51,0,3,.16,4.54.27a3.14,3.14,0,0,1,3,2.85,37.91,37.91,0,0,1,.65,10.73c-.14,2-.72,2.79-2.77,3-3.73.35-7.48.46-11.22.56a21.18,21.18,0,0,1-4-.45c-1.6-.28-2-.72-2.23-2.35C128.17,191.7,128.06,189.47,127.89,187.29Z"/>
				<path d="M127.78,168.7c.17-1.7.28-3.7.6-5.66.27-1.64.79-2,2.38-2.17,7.31-.89,14.91,4.58,16.36,11.78a7.36,7.36,0,0,1,.15.94c.29,2.61-.21,3.23-2.88,3.56a51.44,51.44,0,0,1-13.12,0c-2.29-.31-2.67-.57-3-2.94C128,172.51,128,170.75,127.78,168.7Z"/>
			</g>
			<g id="Sartorius">
				<path id="Sartorius_Left" data-muscles="Sartorius Left" class="cls-1" d="M149.72,294.13A198.24,198.24,0,0,1,158,252.92c1.07-3.26,2.58-6.38,3.56-9.66a42.06,42.06,0,0,0-6.43,5c-1.29,1.31-1.6,3.3-2.09,5a185.62,185.62,0,0,0-6,27.86c-.64,5-1.09,10-1.52,15s-1,10.09-1.06,15.15a130.53,130.53,0,0,0,.65,14.93c.24,2.45.53,4.9.87,7.33s.81,4.92,1.1,7.32c.06.49.18.8.24,1.32s.05,1,.13,1.55a6.2,6.2,0,0,1,0,1.49,6,6,0,0,0,.22,1.57c.57,2.69,1,5.41,1.67,8.08a40.92,40.92,0,0,0,2.58,7.2c.56,1.21,1.14,2.4,1.73,3.59a9.92,9.92,0,0,1,1,2.06c.57-.5,1.59-.65,2.08-1.2.27-.31.14.17.1-.38a3.74,3.74,0,0,0-.39-.84c-.28-.62-.55-1.25-.8-1.88a65.38,65.38,0,0,1-2.31-6.79,118.55,118.55,0,0,1-2.92-14.21,152.49,152.49,0,0,1-2.06-30.62C148.62,305.88,149.12,300,149.72,294.13Z"/>
				<path id="Sartorius_Right" data-muscles="Sartorius Right" class="cls-1" d="M103.66,294.13a198.24,198.24,0,0,0-8.27-41.21c-1.07-3.26-2.58-6.38-3.56-9.66a42.06,42.06,0,0,1,6.43,5c1.28,1.31,1.6,3.3,2.09,5a185.62,185.62,0,0,1,6,27.86c.63,5,1.09,10,1.52,15s1,10.09,1.06,15.15a130.53,130.53,0,0,1-.65,14.93c-.24,2.45-.54,4.9-.87,7.33a66.25,66.25,0,0,1-1.1,7.32,6.63,6.63,0,0,0-.37,1.32,13.34,13.34,0,0,1,0,1.55,6.75,6.75,0,0,0,0,1.49,5.63,5.63,0,0,1-.23,1.57c-.56,2.69-1,5.41-1.66,8.08a40.92,40.92,0,0,1-2.58,7.2c-.56,1.21-1.14,2.4-1.73,3.59a9.92,9.92,0,0,0-1,2.06c-.57-.5-1.6-.65-2.08-1.2-.27-.31-.14.17-.1-.38a3.34,3.34,0,0,1,.39-.84c.28-.62.55-1.25.8-1.88A65.38,65.38,0,0,0,100,356.6,120.54,120.54,0,0,0,103,342.39,153.22,153.22,0,0,0,105,311.77C104.75,305.88,104.26,300,103.66,294.13Z"/>
			</g>
			<g id="Flexor_Carpi" data-muscles="Flexor Carpi">
				<path id="Flexor_Carpi_Left" data-muscles="Flexor Carpi Left" class="cls-1" d="M231.1,260.29a75.61,75.61,0,0,0-6.68-13.79c-5.77-10-12.33-19.44-18.84-28.94-2.93-4.29-5.72-8.68-8.47-13.08a10.76,10.76,0,0,1-1.34-3.54c0-.15-.07-.3-.1-.45-.75,1.11-1.36,2.09-2,3.25.3,1.25.61,2.7.8,4a121.89,121.89,0,0,0,8.59,31.53c2.19,5,5.28,9.67,7.81,14.57a81.91,81.91,0,0,1,3.74,8.53.19.19,0,0,1,0,.07,3.16,3.16,0,0,1,.3.67c.16.51.29,1,.43,1.56a2.41,2.41,0,0,1,.37.55c.13.28.25.57.37.85s.45.5.63.68a8.1,8.1,0,0,1,1.19-.7,28.65,28.65,0,0,1,13.72-2.78A26.57,26.57,0,0,0,231.1,260.29Z"/>
				<path id="Flexor_Carpi_Right" data-muscles="Flexor Carpi Right" class="cls-1" d="M38.4,263.32c-.16.52-.27,1.07-.4,1.59a1.9,1.9,0,0,0-.37.55c-.13.28-.25.57-.38.85l-.52.53a6.31,6.31,0,0,0-1.07-.68,29.48,29.48,0,0,0-13.94-2.9,19,19,0,0,1,.53-2.72,76.22,76.22,0,0,1,6.67-13.79c5.77-10,12.34-19.44,18.84-28.94,2.94-4.29,5.72-8.68,8.48-13.08a11,11,0,0,0,1.33-3.54c0-.15.07-.3.11-.45.74,1.11,1.44,2.24,2.09,3.41-.3,1.25-.82,3.36-1,4.65a120.2,120.2,0,0,1-8.47,30.71,124.24,124.24,0,0,1-8,14.79,39,39,0,0,0-3.19,6.4Z"/>
			</g>
			<g id="Adductor">
				<path id="Adductor_Left" data-muscles="Adductor Left" class="cls-1" d="M126.91,287.36a101.72,101.72,0,0,0,4.11,17.7c2.19,6.85,4.58,13.65,6.41,20.6a159.37,159.37,0,0,0,8.16,23.28c2.85,6.51,5.74,13,8.56,19.55.16.37.3.74.45,1.11a34,34,0,0,1,2.91-2.28,10,10,0,0,1-.63-1.22c-.63-1.33-1.19-2.67-1.69-4a.35.35,0,0,1-.05-.08c-.31-.62-.58-1.24-.84-1.88-.11-.2-.21-.39-.33-.59a9.07,9.07,0,0,1-1-2.32,9.37,9.37,0,0,1-1.57-3.28,15.29,15.29,0,0,1-1.36-2.82c-.87-2.54-1.76-5.15-2.68-7.72a.66.66,0,0,0,0,.14,34.26,34.26,0,0,1-4.33-14c-.46-4.36-.61-8.76-1.15-13.12-.76-6.16,0-12.29.26-18.42s1.1-12.41,1.63-18.61a27,27,0,0,0,0-4.31c-.07-.83-.18-2-1.24-2.08a3.76,3.76,0,0,0-2.1.83,13.56,13.56,0,0,0-1.75,1.56c.41-1.24.82-2.47,1.24-3.71l-.45-.34c-2.09,2.61-4.2,5.18-7.52,6.2a22.22,22.22,0,0,1-5,.92,39.5,39.5,0,0,0-.13,8Z"/>
				<path id="Adductor_Right" data-muscles="Adductor Right" class="cls-1" d="M126.77,287.57a176.88,176.88,0,0,1-4.46,17.52c-2,6.93-4.26,13.83-6.25,20.75A182.86,182.86,0,0,1,107.79,349c-2.85,6.51-5.55,13.26-8.37,19.79-.16.37-.33.58-.48.95a32.37,32.37,0,0,0-2.77-2.18,9.44,9.44,0,0,0,.63-1.23c.63-1.32,1.19-2.66,1.69-4a.41.41,0,0,0,.05-.09c.31-.61.58-1.24.84-1.87.11-.2.21-.39.33-.59a9,9,0,0,0,1-2.33,9.24,9.24,0,0,0,1.57-3.27,15.29,15.29,0,0,0,1.36-2.82c.87-2.54,1.76-5.15,2.68-7.72,0,0,.36-.68.36-.63a39.5,39.5,0,0,0,3.82-13.26c.51-4.24,1-8.85,1.16-13.23.26-6.18-.35-10.12-.44-18.34-.06-6.22-1-12.34-1.44-18.54a28.32,28.32,0,0,1,0-4.32c.07-.83.07-2,1.13-2.13a4.65,4.65,0,0,1,2.38.85,7,7,0,0,1,1.31,1c-.41-1.24-.5-2-.91-3.22.17-.1,1,1,.93.95,2.39,2.28,3.83,3.95,7.15,5a22,22,0,0,0,5,.71,41.6,41.6,0,0,1,.11,8.2Z"/>
			</g>
			<g id="Quadriceps">
				<path id="Quadricep_Left" data-muscles="Quadricep Left" class="cls-1" d="M195,331.38a168.54,168.54,0,0,0-2-18.31,206.2,206.2,0,0,0-9.06-34.2,3.14,3.14,0,0,1-1.62-.84l-.15-.15c0,.12.06.22.08.33a6.17,6.17,0,0,1-4.11-.38c-5.43-1.78-9-5.68-11.58-10.54a44.6,44.6,0,0,1-4.45-14.62,14.55,14.55,0,0,0-1-3.95c-.21.56-.46,1.11-.63,1.68a222.83,222.83,0,0,0-7.56,35.38c-.85,6.65-1.51,13.33-1.9,20-.37,6.3-.55,12.63-.3,18.92a124.75,124.75,0,0,0,4.22,28.87,20.46,20.46,0,0,0,2.6,5.61c2.12,3.24,5.25,3.93,8.52,1.86a28.17,28.17,0,0,0,4.19-3.86c1.2-1.16,2.26-2.46,3.52-3.54a3.77,3.77,0,0,1,4.28-.51c.8.37,1.62.68,2.43,1,4.31,1.81,8.38.14,9.71-4.38,1.13-3.82,1.76-7.78,2.58-11.69a10.85,10.85,0,0,1,1-3.25Z"/>
				<path id="Quadricep_Right" data-muscles="Quadricep Right" class="cls-1" d="M58.64,331.38a168.54,168.54,0,0,1,2-18.31,206.2,206.2,0,0,1,9.06-34.2,3.14,3.14,0,0,0,1.62-.84l.15-.15c0,.12-.06.22-.08.33a6.17,6.17,0,0,0,4.11-.38c5.43-1.78,9-5.68,11.58-10.54a44.6,44.6,0,0,0,4.45-14.62,14.55,14.55,0,0,1,1-3.95c.21.56.46,1.11.63,1.68a221.73,221.73,0,0,1,7.56,35.38c.85,6.65,1.51,13.33,1.9,20,.37,6.3.55,12.63.31,18.92a125.3,125.3,0,0,1-4.23,28.87,20.46,20.46,0,0,1-2.6,5.61c-2.12,3.24-5.25,3.93-8.51,1.86a27.75,27.75,0,0,1-4.2-3.86c-1.2-1.16-2.26-2.46-3.52-3.54a3.77,3.77,0,0,0-4.28-.51c-.8.37-1.62.68-2.43,1-4.31,1.81-8.38.14-9.71-4.38C62.3,346,61.67,342,60.85,338.11a10.85,10.85,0,0,0-1-3.25Z"/>
			</g>
			<g id="Tibialis_Anteriors" data-muscles="Tibialis Anteriors">
				<path id="Tibialis_Anterior_Left" data-muscles="Tibialis Anterior Left" class="cls-1" d="M189.55,410c.69,6.51,1.45,13,2.22,19.52q1.51,12.86,3.11,25.7c.86,6.9,1.85,13.77,2.11,20.73.1,2.59.27,5.19.56,7.77l.64-1.22a2.4,2.4,0,0,1,.21-.31c.13-11.68.26-23.35.53-35,.12-5.5.59-11,.86-16.49.24-4.79.53-9.58.63-14.36.11-5.5.39-11,0-16.5-.73-9-1.92-18-3-26.94-.07-.11-.15-.21-.21-.32s-.11-.24-.16-.36a3.28,3.28,0,0,1-.42-.41,5.6,5.6,0,0,1-1.09-.75,2.9,2.9,0,0,1-.33-.38c0,.11,0,.22-.06.34-.93-2.18-1.87-4.36-2.8-6.55h-.58a11.24,11.24,0,0,0-.79,1.78,72.16,72.16,0,0,0-2.58,14.86,118.69,118.69,0,0,0-.34,12.21C188.3,398.87,189,404.44,189.55,410Z"/>
				<path id="Tibialis_Anterior_Right" data-muscles="Tibialis Anterior Right" class="cls-1" d="M63.86,410c-.68,6.51-1.44,13-2.21,19.52-1,8.57-2,17.14-3.11,25.7-.87,6.9-1.85,13.77-2.12,20.73-.09,2.59-.26,5.19-.56,7.77l-.63-1.22a2.4,2.4,0,0,0-.21-.31c-.13-11.68-.26-23.35-.53-35-.13-5.5-.59-11-.87-16.49-.24-4.79-.53-9.58-.62-14.36-.11-5.5-.39-11,0-16.5.73-9,1.91-18,3-26.94.07-.11.15-.21.21-.32s.1-.24.16-.36a4,4,0,0,0,.41-.41,5.31,5.31,0,0,0,1.09-.75,4,4,0,0,0,.34-.38c0,.11,0,.22.06.34l2.8-6.55h.57a12.28,12.28,0,0,1,.8,1.78A72.16,72.16,0,0,1,65,381.08a121.59,121.59,0,0,1,.34,12.21C65.11,398.87,64.45,404.44,63.86,410Z"/>
			</g>
			<g id="Gastrocnemius">
				<path id="Gastrocnemius_Left" data-muscles="Gastrocnemius Left" class="cls-1" d="M154.69,369.71a32.8,32.8,0,0,1,2.71,17.51,50.07,50.07,0,0,0,.14,8.39c.54,7.56,2.7,14.74,5.32,21.81,1.19,3.22,2.24,6.5,3.24,9.78.85,2.78,1.68,5.56,2.52,8.34,0,0,.07-.11.12-.11.69.12.46.21,1.22.11,0,0,.84-1.1.89-1.15a56.48,56.48,0,0,0,4.36-5.06,12,12,0,0,0,2.28-7.45c-.2-12.62-1.73-25-5.82-37a35.77,35.77,0,0,0-5.84-11.22c-1.84-2.26-3.92-4.26-6.79-5.12a2.55,2.55,0,0,1-1.53-1.21Z"/>
				<path id="Gastrocnemius_Right" data-muscles="Gastrocnemius Right" class="cls-1" d="M98.86,369.71a32.8,32.8,0,0,0-2.71,17.51,50.07,50.07,0,0,1-.14,8.39c-.54,7.56-2.7,14.74-5.32,21.81-1.19,3.22-2.24,6.5-3.24,9.78-.85,2.78-1.68,5.56-2.52,8.34,0,0-.07-.11-.12-.11-.69.12-.46.21-1.22.11,0,0-.84-1.1-.89-1.15a56.48,56.48,0,0,1-4.36-5.06,12,12,0,0,1-2.28-7.45c.2-12.62,1.73-25,5.82-37a35.77,35.77,0,0,1,5.84-11.22c1.84-2.26,3.92-4.26,6.79-5.12A2.55,2.55,0,0,0,96,367.29Z"/>
			</g>
		</g>
		<path id="Body_Front_Outline" data-muscles="Body Front Outline" d="M215.87,519.49c-2.24.63-4.39,2.07-6.93,1.1-.32-.12-.84.33-1.28.47-.76.22-1.64.74-2.26.53a6.42,6.42,0,0,0-5.17.51,5.79,5.79,0,0,1-4.45.2,5.66,5.66,0,0,0-3.23.12,21.21,21.21,0,0,1-9.51-.09,5.07,5.07,0,0,1-4.15-5.42c0-2.71.41-5.41.63-8.12.1-1.19.18-2.38.29-3.57a5.17,5.17,0,0,0-1.8-4.71,6.15,6.15,0,0,1-1.83-4.33c-.28-3.36-.27-6.78,1.17-9.9a14.79,14.79,0,0,0,1-9.08c-1-5.67-1.7-11.38-2.77-17C175,457,174,453.84,173,450.7q-3.47-11.71-7-23.42c-1-3.28-2-6.56-3.23-9.78-2.62-7.07-4.78-14.24-5.32-21.81a51,51,0,0,1-.15-8.38,37.48,37.48,0,0,0-3.2-18.7c-2.82-6.53-5.71-13-8.56-19.55a158.55,158.55,0,0,1-8.16-23.28c-1.83-6.94-4.22-13.75-6.41-20.6a108,108,0,0,1-3.52-14L129,291c1.16,5.43,3,10.81,4.44,16,2,7.38,4.47,14.68,6.68,22a28.66,28.66,0,0,0,1.32,3.42,117.54,117.54,0,0,0,5.09,13.15,39.1,39.1,0,0,0,1.94,5.43c.55,1.2,1.09,2.37,1.65,3.51,1,5,3.66,9.34,5.76,14.06,2.39,5.38,2.22,10.41,2.43,16.19,0,1.17.12,2.34.22,3.51a27.19,27.19,0,0,0-.41,6.3c.08,1,.2,1.95.34,3a46.28,46.28,0,0,0,1.54,7.84c0,.05,0,.09.05.14a20.65,20.65,0,0,0,2.17,8.84c.27.5.57,1,.88,1.44a4.2,4.2,0,0,0,.37,1c2,3.64,1.1,8.14,4.05,11.48h0l.18.58a11.65,11.65,0,0,0,1.73,5.64,1.57,1.57,0,0,0,.72,1c0,.35.11.69.65,1.09a13.71,13.71,0,0,0,3.2-2.41,2.49,2.49,0,0,0,.44-.42l0,0a29.43,29.43,0,0,0,4.3-6.67c.82,4.67,1.46,9.25,1.89,13.85.31,3.42.46,6.86.49,10.29,0,2.71-.24,5.43-.4,8.14-.09,1.35-.27,2.7-.35,4a42.24,42.24,0,0,0-.21,5.94,79.35,79.35,0,0,0,1.32,8.52,14,14,0,0,1-1.21,9.09,17.38,17.38,0,0,0-1.54,7.21c-.05,1.8,0,3.75,1.52,5.14a5.6,5.6,0,0,1,1.67,4.8c-.09,1.27-.16,2.55-.33,3.82-.29,2-.57,3.95-1,5.9-.61,2.77,1.33,6.65,4.87,6.62,1.59,0,3.17-.09,4.76-.16a3,3,0,0,0,3-1.9,3.17,3.17,0,0,0-.92-3.49c-3-3.28-7.09-3.31-10.37-.09.22-3.8,2.72-4.64,10.55-3.43-.17-.85-.34-1.63-.5-2.42l.42-.23c.68,1,1.42,2,2,3.08a12.69,12.69,0,0,1,1.59,7.8,3.7,3.7,0,0,0,4.16-.42c1.08-.95.45-2.24.08-3.37-.51-1.6-1.12-3.17-1.63-4.77a6.68,6.68,0,0,1-.13-1.43,17.28,17.28,0,0,1,3.38,4.72,45.53,45.53,0,0,1,1.79,5.36c2.78,0,3.86-1.31,3-3.84-.39-1.13-1-2.17-1.5-3.27s-.81-2-1.21-3l.55-.25c3.26,2.31,5.38,5.33,5.27,9.62,2.21-.58,2.6-.94,2.21-2.56-.45-1.86-1.19-3.64-1.79-5.46-.18-.55-.33-1.12-.5-1.68,3.54,1.77,4.63,5.05,5.5,8.51,2-1.49,2.39-2.33,1.58-4.2a34.71,34.71,0,0,0-3-5.42,76.34,76.34,0,0,0-10.13-11.5A18.89,18.89,0,0,1,198,486a90.1,90.1,0,0,1-.9-10.25c-.05-1.47-.14-2.93-.25-4.39,1.26-9.53,2-19.93,1.07-29.5,1.18-5.09.43-10.49.95-15.68.59-5.91.83-11.93.83-17.88a152,152,0,0,0-3.32-33.19c0-.67,0-1.31,0-1.68a14.4,14.4,0,0,0-.95-5.67l0-.05c0-.2,0-.4-.05-.59-.25-3-.88-6.08-.66-9.07a75.18,75.18,0,0,0,0-12.19c-.34-3.62-.67-7.25-1-10.87-.06.12-.11.24-.16.36a178.83,178.83,0,0,0-4.05-33.12c-1.79-8.17-3.46-16.6-7.31-24a34,34,0,0,0-2.26-6.76c-2.37-5.47-4.71-11-7.06-16.45-1-3.63-2-7.27-2.87-10.95-.19-1.87-.33-3.73-.55-5.58a23.08,23.08,0,0,0,.21-8.62c0-.11,0-.2,0-.31.48-9.42.06-18.89,1.52-28.25,1.3-8.37,4.83-16.1,6.22-24.42a104.35,104.35,0,0,0,4.47-10.42,1.55,1.55,0,0,0,.07.23,142.34,142.34,0,0,0,8.83,20.46,58.1,58.1,0,0,1,3.87,9.52,5.45,5.45,0,0,0-.28,1.19c-.41,3.14.47,5.57,1.13,8.59s0,6,.53,9a33.9,33.9,0,0,0,2.13,6.93,3.4,3.4,0,0,0,.15.63,5.76,5.76,0,0,0,.62,1.33,52.48,52.48,0,0,0,8,19.39c2.21,4.24,4.39,8.48,6.59,12.72.15.31.31.62.48.92l1.88,3.58a27.54,27.54,0,0,0,1.68,3.81,5.36,5.36,0,0,0,.81,1,7.45,7.45,0,0,0-.7.32,4.58,4.58,0,0,0-2.82,3.6c-.24,2.06-.29,4.13-.44,6.2s-.23,4-.47,6-.65,4-1,6c-.83-1.74-.46-3.54-.29-5.34a21.85,21.85,0,0,0,.06-4.5c-.44-3.77-.82-7.46,1.59-10.84a4.9,4.9,0,0,0,.27-4.64,81.91,81.91,0,0,0-3.74-8.53c-2.53-4.9-5.62-9.53-7.81-14.57A122.28,122.28,0,0,1,194.31,208a49.78,49.78,0,0,0-4.58-14.33c-1.24-2.6-2.7-5.09-3.95-7.67-1.75-3.6-3.39-7.24-5.08-10.85-.22-.48-.46-.94-.9-1.86-.34,1.26-.6,2.06-.77,2.88a159.88,159.88,0,0,1-4.9,17,50.61,50.61,0,0,0-2.3,11.71c-.48,5.8-.44,11.64-.56,17.47-.07,3.35.19,6.73,0,10.07-.49,6.86,1.1,13.28,3.4,19.66s4.21,12.92,6.3,19.38a32,32,0,0,0,1.14,3.15,162,162,0,0,1,11.22,38.57A183.48,183.48,0,0,1,195.76,342c0,3.67.55,7.37.24,11-.53,6.37.7,12.55,1.43,18.8,1.07,9.27,2.32,18.53,3.07,27.83.44,5.47.16,11,.05,16.5-.09,4.79-.38,9.57-.62,14.36-.28,5.5-.74,11-.87,16.5-.28,12.14-.41,24.29-.54,36.44a5.38,5.38,0,0,0,.75,2.7c2.33,3.82,4.62,7.68,7.2,11.33a28.88,28.88,0,0,0,4.74,4.7c2.66,2.33,5.27,4.69,7,7.82a12.06,12.06,0,0,1,1.3,3.57A4.89,4.89,0,0,1,215.87,519.49ZM124,291.66a19.27,19.27,0,0,1-1.05,4.93c-.06.16-.13.31-.2.47a335.92,335.92,0,0,1-12.37,40.2,12.69,12.69,0,0,1-1.55,5.4,10.07,10.07,0,0,1-.73,1.28c-.82,1.67-1.32,3.66-2.27,5.6a13.88,13.88,0,0,1-1.11,1.74c-1.22,5.46-4.39,10.82-6.68,15.6-.63,1.3-1.22,2.58-1.78,3.84-1.09,6.06-2,12.6-1.6,18.6.54,7.89-1,14.34-3.08,21.9a13.84,13.84,0,0,1-1.18,2.9s0,.05,0,.08A14.1,14.1,0,0,1,88.18,421a101.34,101.34,0,0,1-3.74,13.15,1.71,1.71,0,0,1-1.25,1.14,1.42,1.42,0,0,1-.41,1.35c-4-2.11-6.24-5.6-8.23-9.67-.38,2.47-.82,4.94-1.14,7.43a124.2,124.2,0,0,0-.93,21.29c.15,3.27.54,6.53.7,9.8a30.82,30.82,0,0,1-.19,5c-.34,2.93-.88,5.84-1.23,8.78a14.7,14.7,0,0,0,1,7,35.74,35.74,0,0,1,1.79,7.16,7,7,0,0,1-1.93,6.4c-1.42,1.42-1.48,3.31-1.22,5.19.37,2.61.9,5.2,1.13,7.82a10.79,10.79,0,0,1-.37,4.68c-1,2.48-3.27,3.07-5.73,3-1.19,0-2.38-.17-3.57-.3s-2.25-.4-2.74-1.61a3.33,3.33,0,0,1,.69-3.57c2.66-3.24,7-3.49,10.27-.59A3,3,0,0,0,69,511.17a8.73,8.73,0,0,0-5.88-.2c-.75.21-1.48.46-2.46.77.28-1,.49-1.84.75-2.8-2.64,1.76-3.75,4.64-4.2,10.75a10.62,10.62,0,0,1-2.19.18c-2-.22-2.52-.85-2.23-2.82a15.77,15.77,0,0,1,.65-2.3,34,34,0,0,0,1.32-5c-2.5,2.85-4.57,5.88-4.79,9.76-2.63.43-3.89-.66-3.37-3a23.36,23.36,0,0,1,1.61-4c.39-.92.8-1.82,1.38-3.14a7.32,7.32,0,0,0-4.47,4,30.35,30.35,0,0,0-1.7,5.42c-1.67,0-2.39-.64-2.08-2.26a32,32,0,0,1,1.37-4.33c.33-1,.73-1.9,1.18-3-2.94,1.06-4.8,4.09-5.47,8.64a2.29,2.29,0,0,1-2-2.49,9.15,9.15,0,0,1,.92-3.41,50.88,50.88,0,0,1,7.8-10.59c1.34-1.48,2.8-2.85,4.23-4.25a20.53,20.53,0,0,0,6.38-14c.3-5.28.73-10.55,1.26-15.81a1.85,1.85,0,0,0,0-.23,5.33,5.33,0,0,1,0-.56c-.27-6.9-.19-13.75-1-20.66-1-8.32-1.25-16.71-2-25.06-.53-6.31.19-12.48.91-18.7a4.06,4.06,0,0,1-.36-1.94,17.87,17.87,0,0,1,.35-2.63c-.78-3.15.18-6.18.6-9.28a11.73,11.73,0,0,1,.33-3.86l0-.1c.11-4.1,1.69-8.45,1.94-12.38a4.77,4.77,0,0,1,.41-1.67,7.37,7.37,0,0,1-.47.67c.32-3.51.65-7,1-10.54a9.12,9.12,0,0,0,.13-2.14c-.88-6.24-.23-12.44.44-18.64a17.71,17.71,0,0,1,.67-3.73c0-.67,0-1.34.07-2,0-.51,0-1,0-1.51s-.13-1.51-.18-2.11c-.16-1.14-.3-2.28-.4-3.43a9.56,9.56,0,0,1,.28-3.13,10.19,10.19,0,0,1,.41-2.15,6.2,6.2,0,0,1,.23-.69,90.69,90.69,0,0,1,1.07-9.06c.71-4.12,1.25-8.39,2.34-12.43C64.88,295,66.79,291,68,286.67a13.78,13.78,0,0,1,.86-2.32,5.19,5.19,0,0,1,.23-1.42,19.64,19.64,0,0,1,2.16-4.65,32.49,32.49,0,0,1,2.21-6.72c2.69-6.27,5.35-12.55,8.08-18.8,1.34-4,1.62-8.28,2.62-12.31a55.24,55.24,0,0,1-.2-9.18c0-.52,0-1,0-1.57-.53-6.22-.07-12.56-.23-18.79a68.9,68.9,0,0,0-4-21.32c-2.11-6.06-3.67-12.1-5.43-18.21-.25-.52-.49-1-.72-1.57-.69-1.56-1-3.34-1.56-4.93a113.66,113.66,0,0,1-5.82,15c-2.25,4.77-4.52,9.54-6.56,14.4a72.9,72.9,0,0,0-2.07,7.12c-.25.8-.5,1.64-.82,2.42-.11.61-.21,1.22-.32,1.83a5.21,5.21,0,0,1,0,4.56c-1.57,3.33-1.16,7.93-2.2,11.52-1.19,4.11-2.26,8.29-3.55,12.36a60.7,60.7,0,0,1-4.74,11.06c-.75,1.34-1.65,2.64-2.55,3.94-.21.49-.44,1-.7,1.46a21.35,21.35,0,0,0-1.54,2.91,25.26,25.26,0,0,1-1.59,3.75l-.14.22c-1,2.91-2,5.82-3.24,8.65a1.59,1.59,0,0,1-.13.22A5.42,5.42,0,0,1,38.59,271c.13,2.39.06,4.79.16,7.19a12.18,12.18,0,0,0,.47,3.53,17.51,17.51,0,0,1,1,6.71,6.19,6.19,0,0,0,.66-5,14.56,14.56,0,0,1,0-5.88c.68-3.57.71-7.13-1.78-10.29a5.34,5.34,0,0,1-.55-3.41A19.4,19.4,0,0,1,41.4,256c2.25-4.05,4.8-7.94,6.89-12.08a110.24,110.24,0,0,0,10.08-32.14,68.6,68.6,0,0,1,7.82-23.25A95.59,95.59,0,0,0,73,174.26a10.66,10.66,0,0,1,.61-1.08c.27,1,.49,1.79.66,2.55a111,111,0,0,0,5.19,17.69,19.72,19.72,0,0,1,1,3.46A117.25,117.25,0,0,1,82.34,220c0,5.92-.2,11.83-.31,17.74v.48a21.27,21.27,0,0,1-1.19,7.52c-2.14,6.11-4.19,12.25-6.22,18.4-1.54,4.7-2.88,9.45-4.77,14.05-8.08,19.68-11.58,40.31-12.28,61.47-.17,5.28-.31,10.56-.09,15.83a63.18,63.18,0,0,1-.64,10c-.28,2.38-.61,4.75-.88,7.13-.43,3.73-.81,7.45-1.26,11.17C54.07,389,53,394.1,52.84,399.26c-.25,7.49,0,15,.26,22.51.23,7.1.72,14.2,1.07,21.29.3,6.22.68,12.44.8,18.66.14,7,.07,14.08,0,21.12a7,7,0,0,1-.89,3.37Q50.7,491.88,47,497.36a22.22,22.22,0,0,1-3.25,3.48c-1.74,1.65-3.63,3.14-5.31,4.84a16.06,16.06,0,0,0-4.2,6.34c-.92,2.85-.55,5.22,1.51,6.49,2.34,1.44,4.93,2.64,7.85,2.2a2.35,2.35,0,0,1,2,.26,3.79,3.79,0,0,0,3.88.33,1.9,1.9,0,0,1,2,.05,7.59,7.59,0,0,0,6.2.95,4.66,4.66,0,0,1,2.31-.08,22.16,22.16,0,0,0,9.27.36c3.55-.43,5.41-2.92,5.34-6.51,0-.56-.12-1.11-.16-1.67-.27-3.26-.52-6.52-.78-9.78a4.34,4.34,0,0,1,1.48-3.85,6.57,6.57,0,0,0,2-4.74c.22-3.87,0-7.7-1.65-11.27a10.22,10.22,0,0,1-.67-6.09c.44-2.84,1-5.67,1.31-8.52a104.78,104.78,0,0,1,5.37-23c.86-2.32,1.41-4.75,2.15-7.12,2.39-7.7,4.72-15.42,7.22-23.09,1.95-6,4.12-12,4.7-18.3a71.7,71.7,0,0,0,.49-11.7c-.34-4.64-.19-9.14,1.5-13.44,2.42-6.18,5-12.29,7.64-18.37,3.54-8.14,7.1-16.26,9.6-24.8,2.19-7.52,4.51-15,6.79-22.49a127.26,127.26,0,0,0,4.29-16.38Zm126.81,2.8a6.65,6.65,0,0,1-3.23-.45,16.17,16.17,0,0,1-6.14-4.87c-.34-.4-.71-.78-1.34-1.46-.43,3.34-.86,6.31-1.16,9.29a24.73,24.73,0,0,1-3,10c-1.68,2.9-3.23,5.89-5,8.74-1.43,2.3-4,2.2-5.43-.08a12,12,0,0,1-.83-1.73,10.38,10.38,0,0,1-.3-1.19c-.48.5-.83.85-1.16,1.21a34.87,34.87,0,0,1-3.05,3.36c-1.78,1.53-3.59,1.06-4.29-1.18a10.62,10.62,0,0,1-.1-3.74,10.88,10.88,0,0,1,.52-2.19c-.6.57-1.17,1.17-1.8,1.68a16.42,16.42,0,0,1-3.22,2.36c-1.72.77-3.18-.16-3.53-2a5.77,5.77,0,0,1,1.11-4.72c1-1.36,2.06-2.71,3.09-4.06-.91.38-1.82.79-2.75,1.13a10.09,10.09,0,0,1-2.48.74c-2,.19-3.2-1.17-2.56-3.13a7.51,7.51,0,0,1,1.77-2.76c.93-1,2.18-1.6,3.15-2.53a5.56,5.56,0,0,0,1.74-2.42,17.62,17.62,0,0,1,2.14-5.77,1.14,1.14,0,0,0,0-.59c1.26,1.81.45,3.55-.28,5.26a17.58,17.58,0,0,1-1.39,2.51,36,36,0,0,1-2.21,3.36c-.68.88-1.59,1.58-2.32,2.42-.56.64-1.2,1.32-.68,2.41,2.06.24,3.64-.95,5.36-1.71a6.8,6.8,0,0,0,4.16-4.92,4.29,4.29,0,0,1,2-3.12c-.55,2.56-.37,5.29-2.64,7.31-2.56,2.27-4,5.37-5.5,8.36-.5,1-.66,2.1.34,2.85s1.83-.11,2.54-.67a27.44,27.44,0,0,0,6.58-7.54,14.08,14.08,0,0,0,2.44-5.93,3.16,3.16,0,0,1,1.82-2.79,18.15,18.15,0,0,0-.53,3.45,9.67,9.67,0,0,1-2,5.78c-.82,1.27-1.67,2.54-2.43,3.85a18.75,18.75,0,0,0-1.6,3.2c-.68,1.94-.13,3.14,1.83,4.39.31-.18.65-.38,1-.6a4.24,4.24,0,0,0,.75-.59,38.31,38.31,0,0,0,8.56-16.1c.39-1.4.53-2.92,1.81-4.14a3.39,3.39,0,0,1,.16.89c-.56,3.12-.37,6.35-1.75,9.35-.89,1.95-1.46,4-2.18,6.07a15.89,15.89,0,0,0-.59,1.58,3,3,0,0,0,1.54,3.2c1,.34,1.79-.12,2.6-1.57a15.28,15.28,0,0,0,.83-1.73c1.29-3.18,2.61-6.36,3.81-9.58a22.33,22.33,0,0,0,.91-3.71c.61-3.22,1.12-6.46,1.77-9.67a14.88,14.88,0,0,0,.31-5.2,13.33,13.33,0,0,0-.33-1.63,4.54,4.54,0,0,0,1-1.89,3.84,3.84,0,0,1,.35.43c.89,1.23,1.67,2.55,2.63,3.71,1.83,2.21,3.67,4.43,5.7,6.45a5.87,5.87,0,0,0,3.18,1.39c1.51.2,2-.76,1.36-2.11a6.91,6.91,0,0,0-.5-.82,63.73,63.73,0,0,1-7.69-14.58c-.42-1.21-1-2.36-1.39-3.57a6.63,6.63,0,0,0-2.61-3.32,48.25,48.25,0,0,1-4.72-3.69,4.4,4.4,0,0,1-1.39-2.4,25,25,0,0,0-.94-4v-.07a53.24,53.24,0,0,0-2-10.74c0-1.17,0-2.32-.11-3.41a42.3,42.3,0,0,0-1.44-7.77c-.35-8.3-1.07-16.64-3.78-24.36a7.76,7.76,0,0,0-.3-.72,5.13,5.13,0,0,0-.2-.89c-1.82-5.73-3.55-11.34-6.45-16.63-3.07-5.59-3.36-11-5-16.91,0-4.36-.67-8.94-.88-12.89-.38-7.33-.81-14.44-2.59-21.59,0-.18-.1-.34-.15-.5a5.46,5.46,0,0,0-.74-3.23c-.7-3-1.54-6-2.22-9.14-.32-1.41-.59-2.76-.82-4.09a13,13,0,0,0-.78-5.87l-.06-.13c-.1-1-.2-2.13-.28-3.26a17.36,17.36,0,0,0-.92-4.45c0-.2,0-.41-.08-.67a16.07,16.07,0,0,0-9.41-14,30,30,0,0,0-9.95-5.07c-1.79-.55-3.63-.93-5.43-1.47l-1.21-.42q2.75,1.23-2.93-1.22a43.33,43.33,0,0,0-4.32-1.5.49.49,0,0,0-.48-.49,2.48,2.48,0,0,1-.27,0,.46.46,0,0,0-.26-.17,20.7,20.7,0,0,0-2.18-.48c-.44-.17-.87-.34-1.3-.48a8.73,8.73,0,0,0-2.35-.46,15.85,15.85,0,0,0-3.17-1.09c-1.54-.32-3.09-.81-4.62-1a.48.48,0,0,0-.12,0c-1.12-.5-2.29-.73-3.49-1.14A9,9,0,0,1,150,81a4.92,4.92,0,0,1-2.11-3.58.43.43,0,0,0-.17-.26.48.48,0,0,0-.12-.17c.1-.36.21-.73.3-1.09a7.84,7.84,0,0,0,.39-1.71,21.69,21.69,0,0,0,.48-3.81c.12-3.31.35-6.61.48-9.92a.49.49,0,0,0-.07-.25c0-.53-.73-.58-.94-.14a.58.58,0,0,0-.13.2c-.08.21-.17.4-.26.6a.45.45,0,0,0-.08.17,2.79,2.79,0,0,0-.23.78.46.46,0,0,0-.12.23,49.08,49.08,0,0,1-3.22,9.63.46.46,0,0,0-.37.34c-.19.63-.51,1.25-.75,1.89l-.18.19c-.07.07-.15.12-.22.2l-.52.57-.5.53c0-.23.07-.49.12-.79l-1.17,1.32A18.11,18.11,0,0,1,115,78c-1.13-1-2.16-2-3.24-3.07V75a1.83,1.83,0,0,0-.87-.63c-2-4.44-3.62-9.1-5.48-13.61v0a1.28,1.28,0,0,1,0-.27.47.47,0,0,0-.15-.33c0-.07,0-.14,0-.21-.2-.61-1.17-.35-1,.26a3.14,3.14,0,0,1,.12.51s0,.07,0,.11l0,.18a.5.5,0,0,0-.07.37c.14.64.23,1.29.31,1.94a.56.56,0,0,0,0,.23c0,.5,0,1,0,1.51a.44.44,0,0,0,0,.32s0,.07,0,.1c0,.26,0,.52.07.78a.47.47,0,0,0,0,.24c0,.22.08.44.13.66s.11.67.17,1a36.29,36.29,0,0,0,1,8.27c-.21.69-.29,1.41-.49,2.12a6.77,6.77,0,0,1-.36,1l-.1.14c-.91,1.16-2.38,1.55-3.77,2-2.64.76-5.21,1.72-7.82,2.59l-.69.21a.47.47,0,0,0-.57-.3c-3.23.81-6.43,1.75-9.64,2.63-2.36.64-4.48,1.23-6.33,2.87A.45.45,0,0,0,76,90l-3.82,1.19a.49.49,0,0,0-.24,0,43.43,43.43,0,0,0-9.7,3.13c-.56.29-1.1.62-1.64,1a17.41,17.41,0,0,0-5.16,3.27A6.73,6.73,0,0,0,53.67,100a.52.52,0,0,0-.12.42c-.35.39-.68.77-1,1.15-2.12,2.72-2.79,6.34-3.84,9.56a.41.41,0,0,0,.08.42,7.76,7.76,0,0,0-.14,1.37c.07.54.14,1.08.22,1.62a8.28,8.28,0,0,0-.46,3.35c0,.23-.12.45-.18.68a31.72,31.72,0,0,0-1,7.78A35.56,35.56,0,0,0,45,137.61c-.2.46-.39.92-.58,1.38a4.87,4.87,0,0,0-.79,2A58.21,58.21,0,0,0,40,160.71c0,4.73-.09,9.36-.47,14.08a33.41,33.41,0,0,0,0,6.08,5.63,5.63,0,0,0-.15,1.2c-.25,9.54-7,18.54-10.58,27.08-2,4.59-2.56,8.84-3,13.75-.18,2-.35,3.88-.42,5.68-1,4.89-1.58,9.85-2.22,14.81C22.42,249,21.36,254.46,20.5,260c-.11.34-.21.69-.3,1a9.34,9.34,0,0,1-3.57,5.68c-.78.56-1.5,1.21-2.33,1.69a8.22,8.22,0,0,0-3.73,4.8,58.23,58.23,0,0,1-6.19,13.2c-1,1.61-2.08,3.23-3,4.9-.66,1.19-.26,2,1,1.92a5.52,5.52,0,0,0,2.87-.86,23.65,23.65,0,0,0,7-7.84,12.4,12.4,0,0,1,2.06-2.77,5.45,5.45,0,0,0,1.31,1.52,5.66,5.66,0,0,0-.16.89,20.75,20.75,0,0,0,.18,5.22c.39,2.77,1.17,5.49,1.5,8.26.74,6.16,3.55,11.57,6,17.13.44,1,1.16,1.83,2.42,1.47a2.52,2.52,0,0,0,1.62-2.44,3.9,3.9,0,0,0-.32-1.62c-.94-2.71-1.72-5.5-2.9-8.11-1.3-2.87-.76-5.87-1.07-8.86a5.77,5.77,0,0,1,1.31,2.44,54,54,0,0,0,2.23,6.8,33.79,33.79,0,0,0,6,10,20,20,0,0,0,2.55,2.25c2.15-1.85,2.51-3.57,1.22-5.94a51.93,51.93,0,0,0-3.66-5.91c-1.95-2.66-1.62-5.76-2-8.78a11.24,11.24,0,0,1,1.61,3.11,27.84,27.84,0,0,0,.8,2.74,30.37,30.37,0,0,0,6.83,9.18,24.13,24.13,0,0,0,3.18,2.2c1.4-1,1.65-2,1-3.11-1.52-2.9-2.71-6.09-5.23-8.26s-2.55-4.92-3-7.71c1.18.82,1.54,2.1,2.06,3.33s1,2.72,2,3.39a40.46,40.46,0,0,0,6.41,3.13c.32.15.83-.15,1.57-.32a11.55,11.55,0,0,0-1.64-2.57,21.29,21.29,0,0,1-5.46-7.76c-.73-1.56-1.55-3.16-.53-4.93a11.43,11.43,0,0,1,2.14,5.17,4.71,4.71,0,0,0,2.42,3.64,13.16,13.16,0,0,1,2.81,2.22,6.72,6.72,0,0,1,1.64,2.57c.6,2.06-.7,3.59-2.78,3.14a39.21,39.21,0,0,1-5.49-2.1c.67.82,1.18,1.43,1.68,2.06a33.78,33.78,0,0,1,2.31,3,6.44,6.44,0,0,1,.85,2.46,3.16,3.16,0,0,1-1.32,3.38,2.9,2.9,0,0,1-3.56-.44c-1.4-1.25-2.66-2.66-4-4a13.27,13.27,0,0,1,.57,2.44,12.27,12.27,0,0,1-.12,4.2c-.66,2.14-2.43,2.52-4.11,1a41.51,41.51,0,0,1-3.2-3.55c-.26-.3-.5-.6-.94-1.13a23.2,23.2,0,0,1-.84,2.3c-.62,1.26-1.42,2.3-3,2.4a3.12,3.12,0,0,1-3.06-1.9c-2.14-3.93-4.48-7.77-6.26-11.86-1-2.35-1.23-5.09-1.65-7.69s-.65-5.21-1-8.17A16.64,16.64,0,0,0,12,289a17.61,17.61,0,0,1-5.61,4.8,5.53,5.53,0,0,1-4.85.42A2,2,0,0,1,.2,291.36a11.79,11.79,0,0,1,.86-1.7,23.66,23.66,0,0,0,1.24-2.33c1.61-4.08,3.17-8.18,4.74-12.27a5,5,0,0,0,.21-.69,12.75,12.75,0,0,1,7.21-9c4.54-2.23,3.7-1.32,4.52-6.26,1.32-7.95,2.39-15.95,3.45-23.94.95-7.12,1.19-14.37,3.52-21.23,2-5.9,4.33-11.68,6.56-17.5,1.15-3,2.42-5.92,3.59-8.9,1.71-4.39,1.9-9,2.26-13.65.8-10.5,1.09-21.06,3.28-31.42.56-2.65,1.1-5.33,1.89-7.92A96.24,96.24,0,0,0,47,113.83c.4-5.21,1.83-10.06,5.27-14.13a24.17,24.17,0,0,1,13.61-8,50.59,50.59,0,0,0,8-2.44,142.2,142.2,0,0,1,19.65-6.19c2.7-.68,5.35-1.59,8-2.53a4.14,4.14,0,0,0,3.12-4.52c-.29-5.41-.39-10.82-.68-16.23a5.56,5.56,0,0,0-1.75-4.06h0a15.47,15.47,0,0,1-3-2.87A31,31,0,0,1,95,38.08a8.66,8.66,0,0,1,0-1.44c.26-2.13.93-3.94,3.6-4.08.18-2.44.33-4.82.53-7.19.19-2.14.35-4.3.68-6.42A18.68,18.68,0,0,1,108.58,5.5c11.53-7.13,23.39-7.3,35.17-.67A18.74,18.74,0,0,1,153.6,19.6c.39,3.33.6,6.67.86,10,.06.86,0,1.74,0,2.77,3.59.51,3.92,3,3.84,5.86a30.93,30.93,0,0,1-3.94,14.4,11.14,11.14,0,0,1-1.83,2,4.78,4.78,0,0,1,.37-1c2.81-4.86,3.62-10.16,3.43-15.67,0-1,0-2.09-1.49-2.72-.17.89-.35,1.63-.44,2.37-.27,2-.36,4.14-.76,6.16-.77,3.81-1.71,7.59-2.58,11.38l.89.06a5.63,5.63,0,0,0-2.48,4.59c-.31,5.26-.57,10.51-.87,15.77-.16,2.85,1.33,4.51,3.91,5.29,3.44,1.05,6.87,2.13,10.35,3a127.52,127.52,0,0,1,16.62,5.43,47.65,47.65,0,0,0,8,2.41c10.1,2.12,17.5,9.52,18.53,19.74a170.66,170.66,0,0,0,5,28A104.64,104.64,0,0,1,214,159.13c.52,6.84.84,13.71,1.56,20.53a37.37,37.37,0,0,0,2.16,8.8c1.87,5.1,4.07,10.08,6.13,15.11a94.63,94.63,0,0,1,6.57,26.65,301.8,301.8,0,0,0,4.19,30.36,5.31,5.31,0,0,0,3,4.24c1.52.71,2.92,1.66,4.37,2.51a6.21,6.21,0,0,1,2.71,3.24c.35.9.66,1.8,1,2.7,1.75,4.63,3.47,9.27,5.28,13.87.46,1.18,1.25,2.23,1.82,3.37C253.88,292.72,253.26,294.1,250.82,294.46ZM101.29,26.64c.92-1.86,1.65-3.53,2.56-5.1a3.78,3.78,0,0,1,4.05-2,19.41,19.41,0,0,1,3.93.94,39.24,39.24,0,0,0,29.88,0,14.84,14.84,0,0,1,2.5-.8c2.89-.58,4.57.18,5.95,2.78.74,1.41,1.28,2.92,1.9,4.38l.31,0c-.2-2-.35-4-.61-5.93-.58-4.39-2.09-8.34-5.42-11.44-5.72-5.32-12.76-7.12-20.26-7.24a28.47,28.47,0,0,0-10.75,2.14c-7.07,2.76-12.17,7.3-13.44,15.16A25.28,25.28,0,0,0,101.29,26.64Zm.9,29.11a10,10,0,0,0-.21-2.07A67.79,67.79,0,0,1,99.07,38a3.24,3.24,0,0,0-.88-2.59C95.29,38.82,97.62,50.39,102.19,55.75Zm48.36-5.93A46.88,46.88,0,0,0,152.25,39a33.61,33.61,0,0,0-2.93-14.22,11.91,11.91,0,0,0-.94-1.67c-1.21-1.75-2.06-2-4.07-1.38-1.14.38-2.24.85-3.36,1.29A36.18,36.18,0,0,1,130,25.44a40.54,40.54,0,0,1-19.65-3.28c-3.47-1.57-4.49-.75-6.11,2.26a13.78,13.78,0,0,0-.95,2.2,49.71,49.71,0,0,0-2.2,12.09c0,.71.09,1.75.21,2.78a75.66,75.66,0,0,0,8.19,25.91,27.1,27.1,0,0,0,6.07,8.26,16,16,0,0,0,14.18,4.11A17.34,17.34,0,0,0,141.1,72,67,67,0,0,0,150.55,49.82ZM212.2,303.18l-.13.16s.08,0,.1,0S212.19,303.23,212.2,303.18ZM152.48,54.71l-.49.49,0,0,.48-.48ZM231.18,289a12,12,0,0,0-1.79-1.49,36.28,36.28,0,0,0-10.17-3.94c-.54-.11-1.09-.19-1.64-.28a7.71,7.71,0,0,0,2.37,1.24l9.06,3.58,2.21.85Zm-208.29-.52a4.53,4.53,0,0,0,.92-.15q5.79-2.24,11.57-4.51a5.67,5.67,0,0,0,.65-.33,32,32,0,0,0-12.56,4.29c-.24.14-.38.48-.56.73Zm208.8,4.35-5.87,1.66c2.19.24,4.37.48,5.84-1.69Zm-210.24,0c1.62,1.84,3.71,2,6,1.63l-6-1.59Zm193.07-1.46,2.54,2c.14-.17.28-.34.41-.52l-2.55-2ZM33.46,294.29c-.91,0-1.91-.26-2.77.7a2.53,2.53,0,0,0,2.75-.73Zm189,.32-2.07-.39-.11.43,1.88.61Zm-184.7-2.75-2,1,.28.44a1.81,1.81,0,0,0,1.69-1.44Zm-16.3-2.39,1.42-1,0,0-1.43,1ZM231.22,289l.75.67.18-.34-1-.29ZM216,283l-.18-.09v.17ZM33.44,294.26l0,0Zm198.22-1.46,0,0Zm-210.23.07,0,0Zm16.36-1,.48-.47,0,0-.47.48Zm.92-1-.48.48,0,0,.48-.47Zm0,0,.08-.12-.12.08Zm-17.29-1.48-.06.06.09,0Z"/>
	</g>
</svg>
